<svg width="16" height="16" viewBox="0 0 16 16" fill="none" xmlns="http://www.w3.org/2000/svg">
<g id="icons/actions-close-icon">
<path id="Combined Shape" fill-rule="evenodd" clip-rule="evenodd" d="M13.2611 13.6754C13.6517 14.0659 14.2848 14.0659 14.6754 13.6754C15.0659 13.2848 15.0659 12.6517 14.6754 12.2611L9.94069 7.52647L14.7601 2.70711C15.1506 2.31658 15.1506 1.68342 14.7601 1.29289C14.3695 0.902369 13.7364 0.902369 13.3458 1.29289L8.52647 6.11226L3.70711 1.29289C3.31658 0.902369 2.68342 0.902369 2.29289 1.29289C1.90237 1.68342 1.90237 2.31658 2.29289 2.70711L7.11226 7.52647L2.37759 12.2611C1.98707 12.6517 1.98707 13.2848 2.37759 13.6754C2.76812 14.0659 3.40128 14.0659 3.7918 13.6754L8.52647 8.94069L13.2611 13.6754Z" fill="#666666"/>
<mask id="mask0_62_3072" style="mask-type:luminance" maskUnits="userSpaceOnUse" x="2" y="1" width="14" height="13">
<path id="Combined Shape_2" fill-rule="evenodd" clip-rule="evenodd" d="M13.2611 13.6754C13.6517 14.0659 14.2848 14.0659 14.6754 13.6754C15.0659 13.2848 15.0659 12.6517 14.6754 12.2611L9.94069 7.52647L14.7601 2.70711C15.1506 2.31658 15.1506 1.68342 14.7601 1.29289C14.3695 0.902369 13.7364 0.902369 13.3458 1.29289L8.52647 6.11226L3.70711 1.29289C3.31658 0.902369 2.68342 0.902369 2.29289 1.29289C1.90237 1.68342 1.90237 2.31658 2.29289 2.70711L7.11226 7.52647L2.37759 12.2611C1.98707 12.6517 1.98707 13.2848 2.37759 13.6754C2.76812 14.0659 3.40128 14.0659 3.7918 13.6754L8.52647 8.94069L13.2611 13.6754Z" fill="white"/>
</mask>
<g mask="url(#mask0_62_3072)">
</g>
</g>
</svg>
