<svg width="16" height="16" viewBox="0 0 16 16" fill="none" xmlns="http://www.w3.org/2000/svg">
<path d="M0.320007 7.424V13.696C0.320007 14.464 0.960007 15.04 1.66401 15.04H14.336C15.104 15.04 15.68 14.4 15.68 13.696V7.424C15.68 6.656 15.104 6.08 14.336 6.08H1.66401C0.960007 6.08 0.320007 6.656 0.320007 7.424ZM1.60001 9.088C1.60001 8.704 1.92001 8.448 2.24001 8.448C2.49601 8.448 2.68801 8.256 2.68801 8C2.68801 7.616 3.00801 7.36 3.32801 7.36H12.672C13.056 7.36 13.312 7.616 13.312 8C13.312 8.256 13.504 8.448 13.76 8.448C14.144 8.448 14.4 8.704 14.4 9.088V12.096C14.4 12.48 14.144 12.736 13.76 12.736C13.504 12.736 13.312 12.928 13.312 13.184C13.312 13.504 13.056 13.824 12.672 13.824H3.32801C3.00801 13.824 2.68801 13.504 2.68801 13.184C2.68801 12.928 2.49601 12.736 2.24001 12.736C1.92001 12.736 1.60001 12.48 1.60001 12.096V9.088Z" fill="#666666"/>
<path d="M3.328 11.392C3.7875 11.392 4.16 11.0195 4.16 10.56C4.16 10.1005 3.7875 9.728 3.328 9.728C2.8685 9.728 2.496 10.1005 2.496 10.56C2.496 11.0195 2.8685 11.392 3.328 11.392Z" fill="#666666"/>
<path d="M12.672 11.392C13.1315 11.392 13.504 11.0195 13.504 10.56C13.504 10.1005 13.1315 9.728 12.672 9.728C12.2125 9.728 11.84 10.1005 11.84 10.56C11.84 11.0195 12.2125 11.392 12.672 11.392Z" fill="#666666"/>
<path d="M8 13.12C9.408 13.12 10.496 11.968 10.496 10.56C10.496 9.152 9.344 8 8 8C6.592 8 5.504 9.152 5.504 10.56C5.504 11.968 6.656 13.12 8 13.12ZM6.912 10.112C7.104 9.984 7.36 10.048 7.488 10.24L7.68 10.56L8.704 9.92C8.896 9.792 9.152 9.856 9.28 10.048C9.408 10.24 9.344 10.496 9.152 10.624L7.744 11.52C7.68 11.584 7.616 11.584 7.552 11.584C7.552 11.584 7.488 11.584 7.424 11.584C7.296 11.584 7.232 11.456 7.168 11.392L6.784 10.688C6.656 10.496 6.72 10.24 6.912 10.112Z" fill="#666666"/>
<path d="M1.28 4.16C1.28 4.544 1.536 4.8 1.92 4.8H14.08C14.464 4.8 14.72 4.544 14.72 4.16C14.72 3.776 14.464 3.52 14.08 3.52H1.92C1.6 3.52 1.28 3.776 1.28 4.16Z" fill="#666666"/>
<path d="M12.736 2.24C13.12 2.24 13.376 1.984 13.376 1.6C13.376 1.216 13.12 0.959999 12.736 0.959999H3.26399C2.87999 0.959999 2.62399 1.216 2.62399 1.6C2.62399 1.984 2.87999 2.24 3.26399 2.24H12.736Z" fill="#666666"/>
</svg>
