<svg width="50" height="64" viewBox="0 0 50 64" fill="none" xmlns="http://www.w3.org/2000/svg">
<path fill-rule="evenodd" clip-rule="evenodd" d="M2.26613 57.7726L10.8206 54.7887L13.8527 63.2115L24.8975 40.4052L13.3131 34.9656L2.26613 57.7726Z" fill="#65C192"/>
<path fill-rule="evenodd" clip-rule="evenodd" d="M24.8978 40.4055L35.944 63.2118L38.9761 54.7889L47.5291 57.7729L36.4821 34.9658L24.8978 40.4055Z" fill="#65C192"/>
<path fill-rule="evenodd" clip-rule="evenodd" d="M23.3454 1.77833C24.2007 2.3375 25.5999 2.3375 26.4544 1.77833L28.7119 0.301406C29.5663 -0.257767 30.7149 -0.0160219 31.2641 0.837066L32.7163 3.09213C33.2656 3.94522 34.544 4.50513 35.5551 4.33612L38.2283 3.89011C39.2402 3.72184 40.1902 4.40079 40.3402 5.40083L40.7357 8.03725C40.8857 9.03656 41.8216 10.0609 42.8156 10.3136L45.438 10.9793C46.432 11.2321 47.0193 12.2351 46.744 13.2087L46.0163 15.7716C45.741 16.7445 46.1723 18.0546 46.9753 18.6829L49.1051 20.3464C49.9096 20.9739 50.0305 22.1239 49.376 22.9027L47.6484 24.9579C46.994 25.7361 46.8469 27.1057 47.3223 28.0014L48.579 30.3638C49.0537 31.2595 48.691 32.3595 47.7708 32.8084L45.3447 33.9958C44.4246 34.4455 43.7253 35.6381 43.7895 36.6462L43.9581 39.3076C44.0223 40.3157 43.235 41.1762 42.2104 41.2195L39.5037 41.3319C38.4775 41.3753 37.3469 42.185 36.9895 43.1322L36.0469 45.6312C35.6895 46.5783 34.6171 47.0486 33.6619 46.6768L31.1402 45.6959C30.1857 45.324 28.8186 45.6099 28.0999 46.3322L26.2051 48.2367C25.488 48.9583 24.3134 48.9583 23.5947 48.2375L21.6969 46.3314C20.9783 45.6099 19.6111 45.324 18.6566 45.6959L16.1365 46.6768C15.182 47.0486 14.1089 46.5783 13.7522 45.6312L12.8074 43.1322C12.4499 42.185 11.3193 41.3753 10.2932 41.3319L7.58799 41.2195C6.56187 41.1762 5.77605 40.3157 5.84023 39.3076L6.00963 36.6462C6.07306 35.6381 5.37381 34.4455 4.4544 33.9958L2.02754 32.8084C1.10739 32.3595 0.744703 31.2595 1.22008 30.3638L2.47605 28.0014C2.95142 27.1057 2.8044 25.7361 2.14993 24.9587L0.420823 22.902C-0.233655 22.1239 -0.111267 20.9739 0.692464 20.3464L2.82157 18.6829C3.62605 18.0546 4.05739 16.7452 3.78202 15.7724L3.05366 13.208C2.77754 12.2344 3.3656 11.2321 4.35814 10.9801L6.98276 10.3129C7.97679 10.0609 8.91261 9.03656 9.06261 8.03725L9.45814 5.40083C9.60814 4.40079 10.5581 3.72184 11.5701 3.89011L14.2432 4.33612C15.2544 4.50513 16.5328 3.94522 17.0805 3.09213L18.5328 0.837066C19.082 -0.0160219 20.2305 -0.257767 21.0865 0.301406L23.3454 1.77833Z" fill="#A5DABF"/>
<path fill-rule="evenodd" clip-rule="evenodd" d="M25.0406 40.3092C16.2038 40.3092 9.04059 33.2562 9.04059 24.5554C9.04059 15.8558 16.2038 8.80347 25.0406 8.80347C33.8761 8.80347 41.0406 15.8558 41.0406 24.5554C41.0406 33.2562 33.8761 40.3092 25.0406 40.3092Z" stroke="#65C192" stroke-width="1.28"/>
<path fill-rule="evenodd" clip-rule="evenodd" d="M24.8992 15.5237L27.3488 20.4111L32.8267 21.1951L28.8629 24.9992L29.7985 30.3707L24.8992 27.8346L19.9993 30.3707L20.9348 24.9992L16.9716 21.1951L22.449 20.4111L24.8992 15.5237Z" fill="#33AD73"/>
</svg>
