<svg width="16" height="16" viewBox="0 0 16 16" fill="none" xmlns="http://www.w3.org/2000/svg">
<path d="M7.26433 5.27201L11.4186 1.81718C11.3414 1.80535 11.2643 1.79942 11.1814 1.79942H3.00363C2.91479 1.79942 2.83175 1.80535 2.74292 1.81718L6.93259 5.27794C7.02735 5.34905 7.16364 5.34905 7.26433 5.27201Z" fill="#666666"/>
<path d="M7.37704 11.0617C7.37704 8.61424 9.36807 6.62907 11.8155 6.62907C12.3017 6.62907 12.7353 6.70117 13.137 6.83053V3.75497C13.137 3.23942 12.9355 2.74756 12.58 2.39795L8.01694 6.19052C7.48434 6.61895 6.72728 6.62957 6.18592 6.19645L1.59926 2.40388C1.24958 2.75942 1.04819 3.24535 1.04819 3.75497V10.0542C1.04819 11.1387 1.92521 12.0157 3.00363 12.0157H7.48959C7.42637 11.7473 7.37704 11.3887 7.37704 11.0617Z" fill="#666666"/>
<path d="M11.8138 7.92453C10.0839 7.92453 8.67578 9.32558 8.67578 11.0626C8.67578 12.785 10.0769 14.2006 11.8138 14.2006C13.5508 14.2006 14.9518 12.7924 14.9518 11.0626C14.9518 9.30553 13.5292 7.92453 11.8138 7.92453ZM12.8589 11.7836H12.5347V12.1077C12.5347 12.5069 12.2113 12.8287 11.8138 12.8287C11.4154 12.8287 11.0927 12.5061 11.0927 12.1077V11.7836H10.7687C10.3702 11.7836 10.0476 11.4609 10.0476 11.0626C10.0476 10.6643 10.3702 10.3416 10.7687 10.3416H11.0927V10.0175C11.0927 9.61912 11.4154 9.2965 11.8138 9.2965C12.2121 9.2965 12.5347 9.61912 12.5347 10.0175V10.3416H12.8589C13.2572 10.3416 13.5799 10.6643 13.5799 11.0626C13.5799 11.4608 13.2573 11.7836 12.8589 11.7836Z" fill="#666666"/>
</svg>
