<svg width="16" height="16" viewBox="0 0 16 16" fill="none" xmlns="http://www.w3.org/2000/svg">
<path d="M13.6694 6.24544C13.4028 5.97878 13.2534 5.61077 13.2534 5.23743C13.2534 4.57611 12.9868 3.9361 12.5228 3.48275C12.0641 3.01344 11.4241 2.74678 10.7628 2.74678C10.3841 2.74678 10.0268 2.59743 9.75478 2.33076C9.28545 1.85609 8.66146 1.6001 7.99479 1.6001C7.33343 1.6001 6.70944 1.85609 6.23477 2.33076C5.97344 2.60277 5.61611 2.74678 5.2321 2.74678C4.57077 2.74678 3.94678 3.00811 3.47744 3.47744C3.01344 3.9361 2.74144 4.57611 2.74144 5.23743C2.74144 5.62142 2.59743 5.97878 2.32546 6.24544C1.85612 6.70944 1.6001 7.33343 1.6001 8.00544C1.6001 8.6721 1.85612 9.29609 2.33076 9.76543C2.59743 10.0268 2.74144 10.3841 2.74144 10.7681C2.74144 11.4294 3.00277 12.0534 3.4721 12.5228C3.94678 12.9974 4.57077 13.2534 5.2321 13.2534C5.60544 13.2534 5.97344 13.4081 6.2401 13.6748C6.7041 14.1441 7.32812 14.4001 7.99479 14.4001C8.66676 14.4001 9.29079 14.1441 9.75478 13.6748C10.0321 13.4028 10.3895 13.2534 10.7628 13.2534C12.121 13.2534 13.2534 12.1475 13.2534 10.7681C13.2534 10.3948 13.4028 10.0268 13.6694 9.76009C14.1388 9.29075 14.4001 8.66676 14.4001 8.00544C14.4001 7.33877 14.1388 6.71478 13.6694 6.24544ZM4.98678 6.83743C4.80544 6.28275 5.1041 5.69075 5.65345 5.51478C6.20277 5.33343 6.79479 5.63743 6.97611 6.18675C7.15212 6.73076 6.85345 7.32275 6.29876 7.5041C5.75479 7.68011 5.16279 7.38144 4.98678 6.83743ZM7.44544 10.1654C7.34945 10.3468 7.16279 10.4481 6.97077 10.4481C6.56565 10.4481 6.31609 10.0188 6.50143 9.66943L8.6401 5.56276C8.77878 5.30143 9.09876 5.2001 9.36012 5.33877C9.62145 5.4721 9.72279 5.79743 9.58411 6.05876L7.44544 10.1654ZM10.4215 10.3681C9.87744 10.5441 9.28545 10.2454 9.1041 9.70143C8.92812 9.15208 9.22679 8.55475 9.77077 8.37878C10.3255 8.19743 10.9174 8.50143 11.0935 9.05075C11.2748 9.59476 10.9708 10.1868 10.4215 10.3681Z" fill="#333333"/>
</svg>
