<svg width="16" height="16" viewBox="0 0 16 16" fill="none" xmlns="http://www.w3.org/2000/svg">
<path d="M8.00001 0.32C3.77601 0.32 0.320007 3.776 0.320007 8C0.320007 12.224 3.77601 15.68 8.00001 15.68C12.224 15.68 15.68 12.224 15.68 8C15.68 3.776 12.224 0.32 8.00001 0.32ZM8.00001 7.296C9.21601 7.296 10.24 8.32 10.24 9.536C10.24 10.56 9.60001 11.392 8.70401 11.648V11.968C8.70401 12.352 8.38401 12.672 8.00001 12.672C7.61601 12.672 7.29601 12.352 7.29601 11.968V11.648C6.40001 11.392 5.76001 10.56 5.76001 9.536C5.76001 9.152 6.08001 8.832 6.46401 8.832C6.84801 8.832 7.16801 9.152 7.16801 9.536C7.16801 10.048 7.55201 10.432 8.06401 10.432C8.57601 10.432 8.96001 10.048 8.96001 9.536C8.96001 9.024 8.57601 8.64 8.06401 8.64C6.72001 8.704 5.76001 7.68 5.76001 6.464C5.76001 5.44 6.40001 4.608 7.29601 4.352V4.032C7.29601 3.648 7.61601 3.328 8.00001 3.328C8.38401 3.328 8.70401 3.648 8.70401 4.032V4.352C9.60001 4.608 10.24 5.504 10.24 6.464C10.24 6.848 9.92001 7.168 9.60001 7.168C9.21601 7.168 8.89601 6.848 8.89601 6.464C8.89601 5.952 8.51201 5.568 8.00001 5.568C7.48801 5.568 7.10401 5.952 7.10401 6.464C7.10401 6.912 7.48801 7.296 8.00001 7.296Z" fill="#666666"/>
</svg>
