<?xml version="1.0" encoding="UTF-8"?>
<svg width="45px" height="45px" viewBox="0 0 45 45" version="1.1" xmlns="http://www.w3.org/2000/svg" xmlns:xlink="http://www.w3.org/1999/xlink">
    <!-- Generator: Sketch 53.1 (72631) - https://sketchapp.com -->
    <title>icons/error-message</title>
    <desc>Created with Sketch.</desc>
    <g id="Guidelines" stroke="none" stroke-width="1" fill="none" fill-rule="evenodd">
        <g id="guidelines:-general" transform="translate(-716.000000, -6155.000000)">
            <g id="icons/error-message" transform="translate(716.000000, 6155.000000)">
                <rect id="BG" stroke="#E34F45" stroke-width="1" fill="#E34F45" x="1" y="1" width="43" height="43" rx="21.5"></rect>
                <path d="M22.6089445,20.1190498 L27.2373473,15.490647 C27.9144636,14.8135308 28.954903,14.7561477 29.5612337,15.3624784 C30.1675644,15.9688091 30.1101814,17.0092485 29.4330651,17.6863648 L24.8046623,22.3147676 L29.4987697,27.008875 C30.175886,27.6859913 30.1529268,28.8067729 29.447489,29.5122107 C28.7420512,30.2176485 27.6212696,30.2406077 26.9441533,29.5634914 L22.2500459,24.869384 L17.990142,29.1292879 C17.3130257,29.8064041 16.2725864,29.8637872 15.6662557,29.2574565 C15.0599249,28.6511257 15.117308,27.6106864 15.7944242,26.9335701 L20.0543281,22.6736662 L15.5012303,18.1205683 C14.824114,17.4434521 14.8470732,16.3226705 15.552511,15.6172327 C16.2579488,14.9117948 17.3787304,14.8888357 18.0558467,15.565952 L22.6089445,20.1190498 L22.6089445,20.1190498 Z" id="Combined-Shape" fill="#FFFFFF"></path>
            </g>
        </g>
    </g>
</svg>