<svg width="78" height="55" viewBox="0 0 78 55" fill="none" xmlns="http://www.w3.org/2000/svg">
<g filter="url(#filter0_d)">
<path d="M63.6953 4V39.2016C63.6933 39.9841 63.5368 40.7585 63.235 41.4805C62.9331 42.2025 62.4918 42.8578 61.9362 43.4089C61.3807 43.96 60.7219 44.3961 59.9975 44.6922C59.2732 44.9883 58.4975 45.1386 57.715 45.1344H6.39193C5.60941 45.1386 4.83376 44.9883 4.10941 44.6922C3.38506 44.3961 2.72625 43.96 2.17072 43.4089C1.61518 42.8578 1.17385 42.2025 0.871992 41.4805C0.570136 40.7585 0.413691 39.9841 0.411621 39.2016L0.411621 4H63.6953Z" fill="#FDD840"/>
<path d="M59.1864 45.1344C60.4406 45.0033 61.6207 44.477 62.5563 43.6314L33.8729 19.821L2.62659 43.6314C3.56581 44.481 4.75222 45.0076 6.01227 45.1344H59.1864Z" fill="#FCE477"/>
<path d="M0.411621 4C0.698706 4.85334 1.18083 5.62798 1.81968 6.26239L27.8768 25.8962C31.2783 28.3959 33.0027 28.3959 36.341 25.8962L62.2873 6.26239C62.9261 5.62798 63.4083 4.85334 63.6953 4H0.411621Z" fill="#FFCC07"/>
<path d="M8.32208 27.7314H6.73999V29.3135H8.32208V27.7314Z" fill="#A99648"/>
<path d="M11.4863 27.7314H9.90421V29.3135H11.4863V27.7314Z" fill="#A99648"/>
<path d="M14.6505 27.7314H13.0684V29.3135H14.6505V27.7314Z" fill="#A99648"/>
<path d="M17.8147 27.7314H16.2326V29.3135H17.8147V27.7314Z" fill="#A99648"/>
<path d="M8.32208 37.224H6.73999V38.806H8.32208V37.224Z" fill="#A99648"/>
<path d="M11.4863 37.224H9.90421V38.806H11.4863V37.224Z" fill="#A99648"/>
<path d="M14.6505 37.224H13.0684V38.806H14.6505V37.224Z" fill="#A99648"/>
<path d="M8.32208 34.0598H6.73999V35.6418H8.32208V34.0598Z" fill="#A99648"/>
<path d="M8.32208 30.8956H6.73999V32.4777H8.32208V30.8956Z" fill="#A99648"/>
<path d="M17.8147 34.0598H16.2326V35.6418H17.8147V34.0598Z" fill="#A99648"/>
<path d="M17.8147 30.8956H16.2326V32.4777H17.8147V30.8956Z" fill="#A99648"/>
<path d="M17.8147 37.224H16.2326V38.806H17.8147V37.224Z" fill="#A99648"/>
<path d="M16.2326 29.3135H8.32211V37.2239H16.2326V29.3135Z" fill="#A99648"/>
<path d="M14.6505 30.8956H9.90421V35.6418H14.6505V30.8956Z" fill="#E0CA69"/>
<path d="M38.904 37.2398H21.501V38.8219H38.904V37.2398Z" fill="#9C8A40"/>
<path d="M38.904 34.0756H21.501V35.6577H38.904V34.0756Z" fill="#9C8A40"/>
</g>
<g filter="url(#filter1_d)">
<path d="M68.4416 7.16418V42.3657C68.4395 43.1483 68.2831 43.9227 67.9812 44.6447C67.6794 45.3666 67.2381 46.022 66.6825 46.5731C66.127 47.1242 65.4682 47.5603 64.7438 47.8564C64.0195 48.1525 63.2438 48.3028 62.4613 48.2986H11.1382C10.3557 48.3028 9.58004 48.1525 8.85569 47.8564C8.13134 47.5603 7.47253 47.1242 6.91699 46.5731C6.36146 46.022 5.92012 45.3666 5.61827 44.6447C5.31641 43.9227 5.15997 43.1483 5.1579 42.3657V7.16418H68.4416Z" fill="#FDD840"/>
<path d="M63.9327 48.2986C65.1869 48.1674 66.367 47.6411 67.3025 46.7956L38.6192 22.9851L7.37286 46.7956C8.31209 47.6451 9.4985 48.1718 10.7585 48.2986H63.9327Z" fill="#FCE477"/>
<path d="M5.1579 7.16418C5.44498 8.01753 5.9271 8.79217 6.56596 9.42658L32.623 29.0604C36.0245 31.5601 37.749 31.5601 41.0872 29.0604L67.0336 9.42658C67.6724 8.79217 68.1545 8.01753 68.4416 7.16418H5.1579Z" fill="#FFCC07"/>
<path d="M13.0684 30.8956H11.4863V32.4777H13.0684V30.8956Z" fill="#A99648"/>
<path d="M16.2326 30.8956H14.6505V32.4777H16.2326V30.8956Z" fill="#A99648"/>
<path d="M19.3967 30.8956H17.8146V32.4777H19.3967V30.8956Z" fill="#A99648"/>
<path d="M22.5609 30.8956H20.9788V32.4777H22.5609V30.8956Z" fill="#A99648"/>
<path d="M13.0684 40.3881H11.4863V41.9702H13.0684V40.3881Z" fill="#A99648"/>
<path d="M16.2326 40.3881H14.6505V41.9702H16.2326V40.3881Z" fill="#A99648"/>
<path d="M19.3967 40.3881H17.8146V41.9702H19.3967V40.3881Z" fill="#A99648"/>
<path d="M13.0684 37.224H11.4863V38.806H13.0684V37.224Z" fill="#A99648"/>
<path d="M13.0684 34.0598H11.4863V35.6418H13.0684V34.0598Z" fill="#A99648"/>
<path d="M22.5609 37.224H20.9788V38.806H22.5609V37.224Z" fill="#A99648"/>
<path d="M22.5609 34.0598H20.9788V35.6418H22.5609V34.0598Z" fill="#A99648"/>
<path d="M22.5609 40.3881H20.9788V41.9702H22.5609V40.3881Z" fill="#A99648"/>
<path d="M20.9789 32.4777H13.0684V40.3881H20.9789V32.4777Z" fill="#A99648"/>
<path d="M19.3968 34.0598H14.6505V38.806H19.3968V34.0598Z" fill="#E0CA69"/>
<path d="M43.6502 40.404H26.2472V41.9861H43.6502V40.404Z" fill="#9C8A40"/>
<path d="M43.6502 37.2398H26.2472V38.8219H43.6502V37.2398Z" fill="#9C8A40"/>
</g>
<path d="M73.8841 32.3037H51.3392V54.6587H73.8841V32.3037Z" fill="#DDDDDD"/>
<path d="M73.8841 27.2251H51.3392V32.3036H73.8841V27.2251Z" fill="#4C3300"/>
<path d="M51.3392 32.3037H47.9219V54.6587H51.3392V32.3037Z" fill="#CCCBCA"/>
<path d="M51.3392 27.2251H47.9219V32.3036H51.3392V27.2251Z" fill="#302100"/>
<path d="M73.8841 32.3037V50.4187H55.0097C54.525 50.4187 54.0451 50.3227 53.5977 50.1363C53.1503 49.9498 52.7443 49.6766 52.403 49.3324C52.0618 48.9883 51.7921 48.5799 51.6095 48.1309C51.4269 47.6819 51.3351 47.2012 51.3392 46.7166V32.3037H73.8841Z" fill="white"/>
<path d="M58.6801 46.7165C58.6801 47.69 58.2934 48.6236 57.6051 49.3119C56.9167 50.0003 55.9831 50.387 55.0097 50.387H73.884C74.8575 50.387 75.7911 50.0003 76.4794 49.3119C77.1678 48.6236 77.5545 47.69 77.5545 46.7165H58.6801Z" fill="#CCCBCA"/>
<path fill-rule="evenodd" clip-rule="evenodd" d="M54.0287 27.9845V28.6489C54.311 28.6521 54.5878 28.5712 54.8241 28.4167C55.0603 28.2622 55.2452 28.0409 55.3555 27.781C55.4657 27.5211 55.4961 27.2343 55.443 26.9571C55.3898 26.6799 55.2555 26.4247 55.057 26.224C54.8585 26.0232 54.6048 25.886 54.3282 25.8298C54.0516 25.7736 53.7645 25.8008 53.5034 25.9081C53.2423 26.0154 53.0189 26.1979 52.8618 26.4324C52.7046 26.6669 52.6207 26.9428 52.6207 27.2251H53.2219C53.2219 27.0153 53.3052 26.8141 53.4536 26.6657C53.6019 26.5174 53.8031 26.434 54.0129 26.434C54.2227 26.434 54.4239 26.5174 54.5723 26.6657C54.7206 26.8141 54.804 27.0153 54.804 27.2251C54.804 27.3261 54.7838 27.4262 54.7447 27.5194C54.7055 27.6126 54.6482 27.697 54.576 27.7677C54.5038 27.8384 54.4182 27.8941 54.3242 27.9313C54.2302 27.9685 54.1298 27.9866 54.0287 27.9845ZM71.1944 27.9846V28.649C71.5708 28.6449 71.9305 28.4936 72.1967 28.2274C72.4628 27.9613 72.6142 27.6015 72.6183 27.2252C72.6183 27.0382 72.5815 26.853 72.5099 26.6803C72.4383 26.5075 72.3335 26.3505 72.2012 26.2183C72.069 26.0861 71.9121 25.9812 71.7393 25.9097C71.5665 25.8381 71.3814 25.8013 71.1944 25.8013C71.0074 25.8013 70.8223 25.8381 70.6495 25.9097C70.4768 25.9812 70.3198 26.0861 70.1876 26.2183C70.0553 26.3505 69.9505 26.5075 69.8789 26.6803C69.8074 26.853 69.7705 27.0382 69.7705 27.2252H70.4192C70.4192 27.0196 70.5009 26.8224 70.6462 26.677C70.7916 26.5316 70.9888 26.4499 71.1944 26.4499C71.2955 26.4499 71.3955 26.4701 71.4887 26.5092C71.5819 26.5484 71.6663 26.6057 71.7371 26.6779C71.8078 26.7501 71.8634 26.8357 71.9006 26.9297C71.9378 27.0237 71.9559 27.1241 71.9538 27.2252C71.956 27.3255 71.9378 27.4252 71.9004 27.5183C71.863 27.6114 71.8071 27.696 71.7362 27.7669C71.6652 27.8379 71.5807 27.8938 71.4875 27.9312C71.3944 27.9686 71.2947 27.9867 71.1944 27.9846ZM67.7613 28.6476V28.649H67.698C67.7192 28.649 67.7403 28.6486 67.7613 28.6476ZM68.4891 28.4091C68.2725 28.5538 68.0208 28.6361 67.7613 28.6476V27.9846C67.8616 27.9867 67.9614 27.9686 68.0545 27.9312C68.1476 27.8938 68.2322 27.8379 68.3031 27.7669C68.3741 27.696 68.4299 27.6114 68.4673 27.5183C68.5047 27.4252 68.5229 27.3255 68.5207 27.2252C68.5207 27.0154 68.4374 26.8142 68.289 26.6658C68.1407 26.5175 67.9395 26.4341 67.7297 26.4341C67.5199 26.4341 67.3187 26.5175 67.1703 26.6658C67.022 26.8142 66.9386 27.0154 66.9386 27.2252H66.2742C66.2742 26.9435 66.3577 26.6682 66.5141 26.4341C66.6706 26.1999 66.893 26.0174 67.1532 25.9097C67.4133 25.8019 67.6996 25.7737 67.9758 25.8286C68.252 25.8836 68.5058 26.0192 68.7049 26.2183C68.904 26.4175 69.0396 26.6712 69.0946 26.9474C69.1495 27.2236 69.1213 27.5099 69.0135 27.7701C68.9058 28.0302 68.7233 28.2526 68.4891 28.4091ZM64.3282 28.649V27.9846C64.4292 27.9867 64.5297 27.9686 64.6237 27.9314C64.7176 27.8941 64.8032 27.8385 64.8754 27.7678C64.9476 27.6971 65.005 27.6127 65.0441 27.5195C65.0833 27.4263 65.1034 27.3262 65.1034 27.2252C65.1034 27.0196 65.0217 26.8224 64.8764 26.677C64.731 26.5316 64.5338 26.4499 64.3282 26.4499C64.2271 26.4499 64.1271 26.4701 64.0339 26.5092C63.9407 26.5484 63.8563 26.6057 63.7855 26.6779C63.7148 26.7501 63.6592 26.8357 63.622 26.9297C63.5848 27.0237 63.5667 27.1241 63.5688 27.2252H62.9043C62.9043 26.9435 62.9878 26.6682 63.1443 26.4341C63.3007 26.1999 63.5231 26.0174 63.7833 25.9097C64.0435 25.8019 64.3298 25.7737 64.606 25.8286C64.8822 25.8836 65.1359 26.0192 65.335 26.2183C65.5342 26.4175 65.6698 26.6712 65.7247 26.9474C65.7797 27.2236 65.7515 27.5099 65.6437 27.7701C65.5359 28.0302 65.3534 28.2526 65.1193 28.4091C64.8851 28.5655 64.6098 28.649 64.3282 28.649ZM60.895 27.9846V28.649C61.1766 28.649 61.4519 28.5655 61.6861 28.4091C61.9203 28.2526 62.1028 28.0302 62.2105 27.7701C62.3183 27.5099 62.3465 27.2236 62.2915 26.9474C62.2366 26.6712 62.101 26.4175 61.9019 26.2183C61.7027 26.0192 61.449 25.8836 61.1728 25.8286C60.8966 25.7737 60.6103 25.8019 60.3501 25.9097C60.09 26.0174 59.8676 26.1999 59.7111 26.4341C59.5547 26.6682 59.4711 26.9435 59.4711 27.2252H60.1356C60.1335 27.1241 60.1516 27.0237 60.1888 26.9297C60.226 26.8357 60.2817 26.7501 60.3524 26.6779C60.4231 26.6057 60.5075 26.5484 60.6007 26.5092C60.6939 26.4701 60.794 26.4499 60.895 26.4499C61.1006 26.4499 61.2978 26.5316 61.4432 26.677C61.5886 26.8224 61.6703 27.0196 61.6703 27.2252C61.6703 27.3262 61.6501 27.4263 61.611 27.5195C61.5718 27.6127 61.5145 27.6971 61.4423 27.7678C61.3701 27.8385 61.2845 27.8941 61.1905 27.9314C61.0965 27.9686 60.9961 27.9867 60.895 27.9846ZM57.4619 28.649V28.6482C57.7269 28.6394 57.9845 28.5567 58.2055 28.4091C58.4397 28.2526 58.6222 28.0302 58.73 27.7701C58.8377 27.5099 58.8659 27.2236 58.811 26.9474C58.756 26.6712 58.6204 26.4175 58.4213 26.2183C58.2222 26.0192 57.9684 25.8836 57.6922 25.8286C57.416 25.7737 57.1297 25.8019 56.8696 25.9097C56.6094 26.0174 56.387 26.1999 56.2305 26.4341C56.0741 26.6682 55.9906 26.9435 55.9906 27.2252H56.655C56.655 27.0154 56.7384 26.8142 56.8867 26.6658C57.0351 26.5175 57.2363 26.4341 57.4461 26.4341C57.6559 26.4341 57.8571 26.5175 58.0055 26.6658C58.1538 26.8142 58.2371 27.0154 58.2371 27.2252C58.2372 27.3262 58.217 27.4263 58.1779 27.5195C58.1387 27.6127 58.0814 27.6971 58.0092 27.7678C57.937 27.8385 57.8514 27.8941 57.7574 27.9314C57.6634 27.9686 57.563 27.9867 57.4619 27.9846V28.6482C57.4461 28.6488 57.4303 28.649 57.4145 28.649H57.4619Z" fill="#685B47"/>
<path fill-rule="evenodd" clip-rule="evenodd" d="M54.0288 35.8317H61.433V35.8317L64.1383 35.8317H66.1475H66.4956H68.4416H68.8371H71.147L71.1944 38.5212H71.1531L71.1944 40.8785H71.1531L71.1944 43.2361H68.8371H68.4416H66.4956H66.1475H64.1383H63.7903H61.4329V43.2359H54.0288V35.8317ZM63.7902 38.1732V36.1797H61.7968V38.1732H63.7902ZM66.1475 40.8787V42.8722H64.1383V40.8787H66.1475ZM66.4956 42.8722H68.4416V40.8787H66.4956V42.8722ZM70.8464 38.5212H68.8371V40.5305H70.8464V38.5212ZM70.8464 36.1797V38.1732H68.8371V36.1797H70.8464ZM66.1475 38.5212V40.5305H64.1383V38.5212H66.1475ZM68.4416 38.1732H66.4956V36.1797H68.4416V38.1732ZM66.4956 40.5305H68.4416V38.5212H66.4956V40.5305ZM66.1475 36.1797V38.1732H64.1383V36.1797H66.1475ZM61.7968 38.5212V40.5305H63.7902V38.5212H61.7968ZM63.7902 42.8722H61.7968V40.8787H63.7902V42.8722ZM68.8371 42.8722H70.8464V40.8787H68.8371V42.8722Z" fill="#685B47"/>
<defs>
<filter id="filter0_d" x="-5.91675" y="0.835814" width="72.7763" height="50.6271" filterUnits="userSpaceOnUse" color-interpolation-filters="sRGB">
<feFlood flood-opacity="0" result="BackgroundImageFix"/>
<feColorMatrix in="SourceAlpha" type="matrix" values="0 0 0 0 0 0 0 0 0 0 0 0 0 0 0 0 0 0 127 0" result="hardAlpha"/>
<feOffset dx="-1.58209" dy="1.58209"/>
<feGaussianBlur stdDeviation="2.37314"/>
<feColorMatrix type="matrix" values="0 0 0 0 0 0 0 0 0 0 0 0 0 0 0 0 0 0 0.15 0"/>
<feBlend mode="normal" in2="BackgroundImageFix" result="effect1_dropShadow"/>
<feBlend mode="normal" in="SourceGraphic" in2="effect1_dropShadow" result="shape"/>
</filter>
<filter id="filter1_d" x="-1.17047" y="4" width="72.7763" height="50.6271" filterUnits="userSpaceOnUse" color-interpolation-filters="sRGB">
<feFlood flood-opacity="0" result="BackgroundImageFix"/>
<feColorMatrix in="SourceAlpha" type="matrix" values="0 0 0 0 0 0 0 0 0 0 0 0 0 0 0 0 0 0 127 0" result="hardAlpha"/>
<feOffset dx="-1.58209" dy="1.58209"/>
<feGaussianBlur stdDeviation="2.37314"/>
<feColorMatrix type="matrix" values="0 0 0 0 0 0 0 0 0 0 0 0 0 0 0 0 0 0 0.15 0"/>
<feBlend mode="normal" in2="BackgroundImageFix" result="effect1_dropShadow"/>
<feBlend mode="normal" in="SourceGraphic" in2="effect1_dropShadow" result="shape"/>
</filter>
</defs>
</svg>
