<svg width="16" height="16" viewBox="0 0 16 16" fill="none" xmlns="http://www.w3.org/2000/svg">
<path d="M13.3194 2.56313C13.1761 2.06158 12.5556 1.51365 11.7928 1.51365H4.20717C3.46054 1.51365 2.82787 2.04751 2.68055 2.56313C1.38768 6.78124 0.888885 8.28701 0.888885 8.44783V12.8449C0.888885 13.7515 1.62369 14.4863 2.53038 14.4863H13.4696C14.3763 14.4863 15.1111 13.7515 15.1111 12.8449V8.44783C15.1111 8.311 14.5479 6.56727 13.3194 2.56313ZM4.20717 2.69884H11.7928C11.9653 2.69884 12.1221 2.79664 12.1985 2.95L13.7146 7.85523H10.3644C10.0385 7.85523 9.77184 8.12187 9.77184 8.44783V10.2789H5.9022V8.44783C5.9022 8.12187 5.63556 7.85523 5.3096 7.85523H2.28544C3.80736 3.36903 3.58755 2.69884 4.20717 2.69884Z" fill="#666666"/>
<path d="M6.72165 7.25671H9.27779C9.60533 7.25671 9.87038 6.99138 9.87038 6.66412C9.87038 6.33686 9.60533 6.07153 9.27779 6.07153H6.72165C6.39411 6.07153 6.12906 6.33686 6.12906 6.66412C6.12906 6.99138 6.39411 7.25671 6.72165 7.25671Z" fill="#666666"/>
<path d="M6.72165 5.06921H9.27779C9.60533 5.06921 9.87038 4.80388 9.87038 4.47662C9.87038 4.14936 9.60533 3.88403 9.27779 3.88403H6.72165C6.39411 3.88403 6.12906 4.14936 6.12906 4.47662C6.12906 4.80388 6.39411 5.06921 6.72165 5.06921Z" fill="#666666"/>
</svg>
