<svg width="52" height="64" viewBox="0 0 52 64" fill="none" xmlns="http://www.w3.org/2000/svg">
<path fill-rule="evenodd" clip-rule="evenodd" d="M0 0.163086V29.9801V49.6322H38.2394V29.9801V0.163086H0Z" fill="#E9D68F"/>
<path fill-rule="evenodd" clip-rule="evenodd" d="M5.46289 11.0049H9.55997V6.93896H5.46289V11.0049Z" fill="#8F7C38"/>
<path fill-rule="evenodd" clip-rule="evenodd" d="M5.46289 19.1372H9.55997V15.0713H5.46289V19.1372Z" fill="#8F7C38"/>
<path fill-rule="evenodd" clip-rule="evenodd" d="M5.46289 27.9463H9.55997V23.8804H5.46289V27.9463Z" fill="#8F7C38"/>
<path fill-rule="evenodd" clip-rule="evenodd" d="M5.46289 44.2095H9.55997V40.1436H5.46289V44.2095Z" fill="#8F7C38"/>
<path fill-rule="evenodd" clip-rule="evenodd" d="M5.46289 36.0782H9.55997V32.0122H5.46289V36.0782Z" fill="#8F7C38"/>
<path fill-rule="evenodd" clip-rule="evenodd" d="M27.3137 0V11.0045H38.3301L27.3137 0Z" fill="#E9E0C5"/>
<path fill-rule="evenodd" clip-rule="evenodd" d="M6.82837 6.93896V36.756V56.4081H45.0677V36.756V6.93896H6.82837Z" fill="#F4E29C"/>
<path fill-rule="evenodd" clip-rule="evenodd" d="M12.2913 17.7813H16.3883V13.7153H12.2913V17.7813Z" fill="#897634"/>
<path fill-rule="evenodd" clip-rule="evenodd" d="M12.2913 25.9136H16.3883V21.8477H12.2913V25.9136Z" fill="#8F7C38"/>
<path fill-rule="evenodd" clip-rule="evenodd" d="M12.2913 34.7232H16.3883V30.6572H12.2913V34.7232Z" fill="#897634"/>
<path fill-rule="evenodd" clip-rule="evenodd" d="M12.2913 50.9869H16.3883V46.9209H12.2913V50.9869Z" fill="#897634"/>
<path fill-rule="evenodd" clip-rule="evenodd" d="M12.2913 42.8545H16.3883V38.7886H12.2913V42.8545Z" fill="#897634"/>
<path fill-rule="evenodd" clip-rule="evenodd" d="M34.1421 6.77734L45.1584 17.7819H34.1421V6.77734Z" fill="#F4EDD7"/>
<path fill-rule="evenodd" clip-rule="evenodd" d="M13.6565 13.7153V43.5324V63.1845H51.8959V43.5324V13.7153H13.6565Z" fill="#FFEEA9"/>
<path fill-rule="evenodd" clip-rule="evenodd" d="M25.9485 23.203H46.4339V21.8477H25.9485V23.203Z" fill="#D3BE61"/>
<path fill-rule="evenodd" clip-rule="evenodd" d="M25.9485 31.3353H46.4339V29.98H25.9485V31.3353Z" fill="#D3BE61"/>
<path fill-rule="evenodd" clip-rule="evenodd" d="M19.1196 24.5586H23.2167V20.4927H19.1196V24.5586Z" fill="#8F7C38"/>
<path fill-rule="evenodd" clip-rule="evenodd" d="M19.1196 32.69H23.2167V28.624H19.1196V32.69Z" fill="#8F7C38"/>
<path fill-rule="evenodd" clip-rule="evenodd" d="M25.9485 40.1439H46.4339V38.7886H25.9485V40.1439Z" fill="#D3BE61"/>
<path fill-rule="evenodd" clip-rule="evenodd" d="M19.1196 41.4996H23.2167V37.4336H19.1196V41.4996Z" fill="#8F7C38"/>
<path fill-rule="evenodd" clip-rule="evenodd" d="M25.9485 56.4085H46.4339V55.0532H25.9485V56.4085Z" fill="#D3BE61"/>
<path fill-rule="evenodd" clip-rule="evenodd" d="M19.1196 57.7632H23.2167V53.6973H19.1196V57.7632Z" fill="#8F7C38"/>
<path fill-rule="evenodd" clip-rule="evenodd" d="M25.9485 48.2762H46.4339V46.9209H25.9485V48.2762Z" fill="#D3BE61"/>
<path fill-rule="evenodd" clip-rule="evenodd" d="M19.1196 49.6319H23.2167V45.5659H19.1196V49.6319Z" fill="#8F7C38"/>
<path fill-rule="evenodd" clip-rule="evenodd" d="M40.9712 24.5584H51.9869L40.9712 13.5532V24.5584Z" fill="#FFFAE9"/>
<path fill-rule="evenodd" clip-rule="evenodd" d="M51.896 37.8472V24.5576H40.8796L51.896 37.8472Z" fill="#FDD83F"/>
</svg>
