<svg width="92" height="118" viewBox="0 0 92 118" fill="none" xmlns="http://www.w3.org/2000/svg">
<path fill-rule="evenodd" clip-rule="evenodd" d="M4.16968 106.302L19.9099 100.811L25.489 116.309L45.8113 74.3456L24.4962 64.3367L4.16968 106.302Z" fill="#65C192"/>
<path fill-rule="evenodd" clip-rule="evenodd" d="M45.8119 74.3459L66.137 116.31L71.7161 100.811L87.4536 106.302L67.1271 64.337L45.8119 74.3459Z" fill="#65C192"/>
<path fill-rule="evenodd" clip-rule="evenodd" d="M42.9558 3.27206C44.5294 4.30094 47.104 4.30094 48.6762 3.27206L52.83 0.554519C54.4022 -0.47436 56.5155 -0.029549 57.5261 1.54013L60.1982 5.68945C61.2088 7.25913 63.561 8.28936 65.4216 7.9784L70.3402 7.15773C72.2021 6.84812 73.9501 8.09738 74.2261 9.93746L74.9539 14.7885C75.2299 16.6272 76.9518 18.5119 78.7808 18.977L83.606 20.2019C85.435 20.667 86.5157 22.5125 86.009 24.3039L84.6702 29.0197C84.1635 30.8098 84.9572 33.2204 86.4347 34.3764L90.3536 37.4373C91.8338 38.5919 92.0563 40.7078 90.852 42.141L87.6732 45.9225C86.469 47.3543 86.1985 49.8745 87.0732 51.5226L89.3855 55.8693C90.2589 57.5174 89.5915 59.5413 87.8984 60.3674L83.4344 62.5522C81.7413 63.3797 80.4547 65.574 80.5728 67.4289L80.8831 72.3259C81.0012 74.1809 79.5525 75.7641 77.6672 75.8438L72.6869 76.0507C70.7988 76.1305 68.7185 77.6204 68.0608 79.3631L66.3265 83.9613C65.6688 85.7041 63.6956 86.5693 61.938 85.8852L57.2981 84.0803C55.5419 83.3962 53.0263 83.9221 51.704 85.2511L48.2176 88.7555C46.898 90.0832 44.7367 90.0832 43.4144 88.7569L39.9225 85.2498C38.6002 83.9221 36.0846 83.3962 34.3284 84.0803L29.6913 85.8852C27.935 86.5693 25.9605 85.7041 25.3041 83.9613L23.5657 79.3631C22.908 77.6204 20.8277 76.1305 18.9396 76.0507L13.962 75.8438C12.074 75.7641 10.6281 74.1809 10.7461 72.3259L11.0578 67.4289C11.1746 65.574 9.88794 63.3797 8.19623 62.5522L3.7308 60.3674C2.03773 59.5413 1.37038 57.5174 2.24507 55.8693L4.55606 51.5226C5.43074 49.8745 5.16023 47.3543 3.956 45.9239L0.774444 42.1396C-0.429794 40.7078 -0.2046 38.5919 1.27427 37.4373L5.19182 34.3764C6.67206 33.2204 7.46573 30.8111 6.95904 29.0211L5.61886 24.3026C5.1108 22.5111 6.19283 20.667 8.0191 20.2033L12.8484 18.9756C14.6774 18.5119 16.3993 16.6272 16.6753 14.7885L17.4031 9.93746C17.6791 8.09738 19.4271 6.84812 21.2891 7.15773L26.2076 7.9784C28.0682 8.28936 30.4204 7.25913 31.4283 5.68945L34.1004 1.54013C35.111 -0.029549 37.2243 -0.47436 38.7993 0.554519L42.9558 3.27206Z" fill="#A5DABF"/>
<path fill-rule="evenodd" clip-rule="evenodd" d="M46.0746 74.1688C29.8149 74.1688 16.6346 61.1913 16.6346 45.1818C16.6346 29.1746 29.8149 16.1983 46.0746 16.1983C62.3319 16.1983 75.5146 29.1746 75.5146 45.1818C75.5146 61.1913 62.3319 74.1688 46.0746 74.1688Z" stroke="#65C192" stroke-width="2.3552"/>
<path fill-rule="evenodd" clip-rule="evenodd" d="M45.8145 28.5638L50.3218 37.5567L60.4011 38.9992L53.1078 45.9988L54.8292 55.8824L45.8145 51.216L36.7987 55.8824L38.5201 45.9988L31.2278 38.9992L41.306 37.5567L45.8145 28.5638Z" fill="#33AD73"/>
</svg>
