<svg width="16" height="16" viewBox="0 0 16 16" fill="none" xmlns="http://www.w3.org/2000/svg">
<path fill-rule="evenodd" clip-rule="evenodd" d="M15.1109 8.00003C15.1109 11.9274 11.9271 15.1111 7.99978 15.1111C4.07242 15.1111 0.888672 11.9274 0.888672 8.00003C0.888672 4.07267 4.07242 0.888916 7.99978 0.888916C11.9271 0.888916 15.1109 4.07267 15.1109 8.00003ZM4.54017 7.4667C4.89054 7.12283 5.45333 7.1281 5.79719 7.47847L7.22314 8.93137L11.2668 5.08422C11.6225 4.74584 12.1851 4.75986 12.5235 5.11553C12.8619 5.47119 12.8479 6.03383 12.4922 6.37221L7.81446 10.8226C7.46269 11.1573 6.90746 11.1478 6.56737 10.8012L4.5284 8.72372C4.18453 8.37336 4.1898 7.81057 4.54017 7.4667Z" fill="#33AD73"/>
<mask id="mask0_130_2073" style="mask-type:luminance" maskUnits="userSpaceOnUse" x="0" y="0" width="16" height="16">
<path fill-rule="evenodd" clip-rule="evenodd" d="M15.1109 8.00003C15.1109 11.9274 11.9271 15.1111 7.99978 15.1111C4.07242 15.1111 0.888672 11.9274 0.888672 8.00003C0.888672 4.07267 4.07242 0.888916 7.99978 0.888916C11.9271 0.888916 15.1109 4.07267 15.1109 8.00003ZM4.54017 7.4667C4.89054 7.12283 5.45333 7.1281 5.79719 7.47847L7.22314 8.93137L11.2668 5.08422C11.6225 4.74584 12.1851 4.75986 12.5235 5.11553C12.8619 5.47119 12.8479 6.03383 12.4922 6.37221L7.81446 10.8226C7.46269 11.1573 6.90746 11.1478 6.56737 10.8012L4.5284 8.72372C4.18453 8.37336 4.1898 7.81057 4.54017 7.4667Z" fill="white"/>
</mask>
<g mask="url(#mask0_130_2073)">
</g>
</svg>
