<svg width="46" height="46" viewBox="0 0 46 46" fill="none" xmlns="http://www.w3.org/2000/svg">
<path d="M23 0.600006C10.616 0.600006 0.600006 10.616 0.600006 23C0.600006 35.384 10.616 45.4 23 45.4C35.384 45.4 45.4 35.384 45.4 23C45.4 10.616 35.384 0.600006 23 0.600006ZM11.8 26.2C10.04 26.2 8.60001 24.76 8.60001 23C8.60001 21.24 10.04 19.8 11.8 19.8C13.56 19.8 15 21.24 15 23C15 24.76 13.56 26.2 11.8 26.2ZM23 26.2C21.24 26.2 19.8 24.76 19.8 23C19.8 21.24 21.24 19.8 23 19.8C24.76 19.8 26.2 21.24 26.2 23C26.2 24.76 24.76 26.2 23 26.2ZM34.2 26.2C32.44 26.2 31 24.76 31 23C31 21.24 32.44 19.8 34.2 19.8C35.96 19.8 37.4 21.24 37.4 23C37.4 24.76 35.96 26.2 34.2 26.2Z" fill="#FAB221"/>
</svg>
