<?xml version="1.0" standalone="no"?>
<!DOCTYPE svg PUBLIC "-//W3C//DTD SVG 20010904//EN"
 "http://www.w3.org/TR/2001/REC-SVG-20010904/DTD/svg10.dtd">
<svg version="1.0" xmlns="http://www.w3.org/2000/svg"
 width="700.000000pt" height="700.000000pt" viewBox="0 0 700.000000 700.000000"
 preserveAspectRatio="xMidYMid meet">
<metadata>
Created by potrace 1.11, written by Peter Selinger 2001-2013
</metadata>
<g transform="translate(0.000000,700.000000) scale(0.100000,-0.100000)"
fill="#000000" stroke="none">
<path d="M3278 6995 c-1 -1 -41 -6 -88 -9 -96 -7 -96 -8 -325 -42 -16 -3 -37
-7 -45 -9 -8 -2 -26 -6 -40 -9 -191 -33 -536 -147 -737 -242 -51 -24 -94 -44
-97 -44 -25 0 -481 -278 -527 -322 -8 -7 -32 -26 -54 -42 -183 -135 -475 -422
-611 -601 -48 -63 -49 -64 -77 -100 -135 -172 -317 -498 -422 -755 -104 -255
-199 -608 -221 -821 -3 -35 -8 -66 -9 -69 -2 -3 -7 -48 -12 -100 -15 -176 -8
-608 12 -731 2 -13 6 -46 10 -74 25 -216 121 -577 212 -800 51 -127 155 -340
215 -444 49 -83 170 -271 195 -301 6 -8 43 -55 81 -105 145 -189 359 -408 550
-562 396 -320 847 -547 1335 -673 20 -6 54 -14 75 -20 103 -27 321 -63 462
-76 136 -12 170 -13 340 -13 220 0 289 4 475 30 327 45 642 134 945 267 141
62 246 117 448 237 24 15 134 88 152 102 8 6 56 42 105 79 125 93 210 169 350
309 165 164 240 251 367 425 232 318 439 748 534 1112 9 35 18 70 20 78 8 31
44 196 49 225 3 17 7 41 10 55 6 30 13 84 20 165 4 33 9 67 12 75 11 32 10
519 -2 640 -13 135 -23 216 -30 240 -2 8 -6 33 -10 55 -7 51 -44 226 -50 235
-2 4 -7 21 -10 38 -8 49 -102 340 -125 387 -5 11 -21 49 -36 85 -89 220 -248
498 -412 720 -269 364 -681 731 -1052 937 -30 17 -82 46 -115 65 -93 52 -316
151 -455 201 -191 69 -475 142 -630 162 -19 3 -46 7 -60 10 -14 3 -52 8 -85
11 -33 3 -73 8 -90 10 -34 6 -542 14 -547 9z m472 -1740 c402 -58 716 -213
1000 -494 217 -215 407 -506 490 -751 59 -172 14 -369 -116 -510 -209 -225
-620 -204 -800 42 -20 27 -51 86 -69 131 -94 238 -219 388 -402 481 -88 44
-138 59 -251 74 -227 31 -470 -44 -627 -194 -98 -94 -176 -215 -229 -356 -39
-104 -51 -122 -126 -195 -89 -88 -213 -136 -354 -137 -96 -1 -132 5 -208 32
-193 68 -332 279 -323 487 4 103 31 185 108 337 141 276 345 529 562 696 44
35 85 66 90 70 51 41 220 131 340 182 100 42 271 86 410 105 121 17 388 16
505 0z"/>
</g>
</svg>
