<svg width="60" height="60" viewBox="0 0 60 60" fill="none" xmlns="http://www.w3.org/2000/svg">
<path d="M47.5 6H12.5C8.91992 6 6 8.92004 6 12.5V18.4401H54V12.5C54 8.92004 51.08 6 47.5 6ZM13.02 14.2201C11.9 14.2201 11 13.3401 11 12.2401C11 11.12 11.9 10.2201 13.02 10.2201C14.12 10.2201 15 11.12 15 12.2401C15 13.3401 14.12 14.2201 13.02 14.2201ZM20.02 14.2201C18.9 14.2201 18 13.3401 18 12.2401C18 11.12 18.9 10.2201 20.02 10.2201C21.12 10.2201 22 11.12 22 12.2401C22 13.3401 21.12 14.2201 20.02 14.2201ZM27.02 14.2201C25.9 14.2201 25 13.3401 25 12.2401C25 11.12 25.9 10.2201 27.02 10.2201C28.12 10.2201 29 11.12 29 12.2401C29 13.3401 28.12 14.2201 27.02 14.2201Z" fill="#FAB221"/>
<path d="M6 47.52C6 51.1001 8.91992 54 12.5 54H47.5C51.08 54 54 51.1001 54 47.52V22.4401H6V47.52ZM19.86 34.3601L23.98 30.2401C24.2999 29.9401 24.72 29.76 25.1599 29.76H27.0399C27.2799 29.76 27.48 29.9401 27.52 30.16C27.76 31.3201 28.7799 32.2001 30 32.2001C31.24 32.2001 32.26 31.3201 32.48 30.16C32.5399 29.9401 32.74 29.76 32.98 29.76H34.62C35.1999 29.76 35.74 29.9801 36.1599 30.4L40.14 34.3601C40.4 34.66 40.5599 35.02 40.5599 35.38C40.5599 35.76 40.4 36.12 40.14 36.38L38.62 37.9C38.36 38.2001 38 38.3201 37.62 38.3201C37.22 38.3201 36.86 38.1801 36.6 37.9L36.02 37.3601V44.7001C36.02 45.78 35.14 46.6801 34.0399 46.6801H25.9399C24.84 46.6801 23.96 45.78 23.96 44.7001V37.3601L23.4 37.9C22.84 38.4601 21.9399 38.4601 21.38 37.9L19.86 36.38C19.2999 35.8401 19.2999 34.9401 19.86 34.3601Z" fill="#FAB221"/>
</svg>