<svg width="67" height="54" viewBox="0 0 67 54" fill="none" xmlns="http://www.w3.org/2000/svg">
<path d="M5.8446 35.136H10.3811L17.3112 44.6482C17.8399 45.3696 18.6749 45.7704 19.5933 45.7971C20.5118 45.7971 21.3467 45.3696 21.8755 44.6749L27.6923 36.8995V26.3454C27.6923 20.8412 32.3401 16.379 38.0734 16.379H46.5063V5.6111C46.5063 2.51164 43.8902 0 40.6896 0H5.8446C2.61615 0 0 2.51164 0 5.6111V29.525C0 32.6244 2.61615 35.136 5.8446 35.136Z" fill="#FAB221"/>
<path d="M33.2591 26.3454V42.2969C33.2591 44.8352 35.4021 46.8926 38.0739 46.8926H40.6066L44.9483 52.8778C45.4771 53.5725 46.312 54 47.2305 54C48.1489 54 48.9839 53.5992 49.5127 52.8778L53.9935 46.8926H61.2854C63.9293 46.8926 66.1002 44.8352 66.1002 42.2969V26.3454C66.1002 23.807 63.9293 21.7229 61.2854 21.7229H38.0739C35.4021 21.7229 33.2591 23.807 33.2591 26.3454Z" fill="#FAB221"/>
</svg>
