<?xml version="1.0" encoding="UTF-8"?>
<svg width="31px" height="36px" viewBox="0 0 31 36" version="1.1" xmlns="http://www.w3.org/2000/svg" xmlns:xlink="http://www.w3.org/1999/xlink">
    <!-- Generator: Sketch 53.2 (72643) - https://sketchapp.com -->
    <title>Group</title>
    <desc>Created with Sketch.</desc>
    <g id="Integraciones" stroke="none" stroke-width="1" fill="none" fill-rule="evenodd">
        <g id="logo/integration-shopify" transform="translate(-1.000000, -14.000000)">
            <g id="Group" transform="translate(1.000000, 14.000000)">
                <path d="M27.0705597,6.83218674 C27.0705597,6.83218674 27.0511375,6.67229082 26.9501425,6.61220872 C26.8491474,6.55212662 26.7695167,6.55212662 26.7695167,6.55212662 L23.9445684,6.35152992 L21.8605743,4.29226429 C21.7799725,4.23218219 21.6799485,4.19245048 21.6003178,4.17210009 L20.0572298,35.1046924 L30.9180829,32.7653667 L27.0705597,6.83218674 Z" id="Fill-4" fill="#608E3E"></path>
                <path d="M13.125473,1.39378736 C13.8460339,1.13310856 14.4073333,1.13310856 14.8482156,1.41316868 C12.6039889,2.4326263 11.6027783,5.01228046 11.161896,7.23241107 L8.39618521,8.09197277 C9.01672214,5.85246084 10.3995775,2.37351326 13.125473,1.39378736 L13.125473,1.39378736 Z M12.5641735,6.81183635 C13.0244779,5.01228046 13.9062424,3.19237418 15.5901408,2.4927084 C15.9309991,3.39297088 16.0514163,4.63240652 16.0310231,5.73229663 L12.5641735,6.81183635 Z M17.5333245,2.53340918 C18.1548326,2.97336523 18.615137,3.85327731 18.9161799,4.83300322 L17.2332527,5.35339176 L17.2332527,4.99193007 C17.1924662,3.91239035 17.0526269,2.99274655 16.7923704,2.25237999 C17.072049,2.29308077 17.3128834,2.37351326 17.5333245,2.53340918 L17.5333245,2.53340918 Z M21.0798048,4.17306915 L20.0183856,4.49286099 C19.5571101,3.13326114 18.9161799,2.15353524 18.1150172,1.59341499 C17.5139024,1.17380934 16.8729722,0.993563027 16.1514402,1.05364513 C16.0116009,0.854017498 15.8503973,0.694121578 15.6707426,0.554576049 C14.889002,-0.065626304 13.8877914,-0.16544012 12.6855618,0.254165534 C9.09732397,1.55368328 7.55423603,6.17225267 6.99293658,8.51157842 L3.78731463,9.51165472 C3.78731463,9.51165472 3.04538941,9.71128235 2.86573474,9.93126037 C2.68608007,10.1512384 2.6452936,10.7714407 2.6452936,10.7714407 L-2.13162821e-14,31.3272725 L20.0572298,35.0853111 L21.6003178,4.15271876 C21.3604545,4.11298705 21.1400134,4.15271876 21.0798048,4.17306915 L21.0798048,4.17306915 Z" id="Fill-6" fill="#94BE46"></path>
                <path d="M14.2145574,21.3681708 C13.9057633,20.9287879 13.5350104,20.5531864 13.1432716,20.2190934 C12.7515328,19.8850004 12.3597939,19.5934284 11.9680551,19.34134 C11.6792476,19.1742935 11.4314128,18.9859866 11.2255501,18.8189401 C11.0196873,18.6518936 10.8537979,18.4848471 10.7098939,18.3178006 C10.5859765,18.1507541 10.4830451,17.9837076 10.4210864,17.8166611 C10.3591277,17.6496146 10.3381417,17.4825681 10.3381417,17.2942612 C10.3591277,17.0431852 10.4001004,16.8346302 10.5030318,16.6463232 C10.5859765,16.4580163 10.7298805,16.2909698 10.8947706,16.1451838 C11.0596607,15.9993977 11.2665228,15.8941078 11.4933715,15.8110908 C11.7202203,15.7280737 11.9880418,15.6642923 12.2768492,15.6642923 C12.5866427,15.6430319 12.8954368,15.6642923 13.183245,15.6855528 C13.4720524,15.7068133 13.7608599,15.7695822 14.0286813,15.8323512 C14.2965028,15.8951202 14.5443376,15.9791497 14.7502003,16.0621667 C14.9770491,16.1461962 15.1629252,16.2292132 15.3278152,16.3132427 L16.7088945,12.156316 C16.5030318,12.051026 16.255197,11.9467485 15.9663895,11.8637315 C15.6775821,11.779702 15.3677886,11.7169331 15.0180218,11.6754245 C14.6672556,11.633916 14.2955035,11.6126555 13.8837779,11.6126555 C13.4920391,11.6126555 13.0593276,11.633916 12.626616,11.696685 C11.6782483,11.822223 10.8328119,12.093547 10.0903069,12.4691485 C9.36878793,12.8245019 8.75020032,13.3053934 8.23454409,13.8693018 C7.71888786,14.4129622 7.32714902,15.0598877 7.03834156,15.7695822 C6.7495341,16.4802892 6.58464403,17.2527526 6.54267201,18.1092456 C6.52268533,18.6103851 6.56365802,19.0912765 6.68757541,19.5093989 C6.79150612,19.9477694 6.95639619,20.343619 7.18324496,20.7212453 C7.38910772,21.0958344 7.6579285,21.4299274 7.96672264,21.7447847 C8.27551678,22.0566049 8.60629626,22.3491893 8.97704909,22.6215257 C9.26585655,22.8300807 9.51269199,23.0396482 9.71955409,23.2482032 C9.92641618,23.4365101 10.0913063,23.6450652 10.2152236,23.8333721 C10.339141,24.0216791 10.4210864,24.2302341 10.4830451,24.418541 C10.5450038,24.6058356 10.5659898,24.815403 10.5450038,25.0442061 C10.5450038,25.2527611 10.4830451,25.4613161 10.4010997,25.6506355 C10.318155,25.8389425 10.1942376,25.9847285 10.0503336,26.1102665 C9.9064295,26.2358044 9.72055342,26.3188215 9.49370465,26.3815905 C9.28684256,26.423099 9.04000712,26.4443594 8.77218566,26.4028509 C8.46239219,26.36033 8.15359806,26.2550401 7.84380459,26.151775 C7.55499712,26.026237 7.24520365,25.900699 6.9773822,25.7336525 C6.70856141,25.5868541 6.46172597,25.4198076 6.2348772,25.2527611 C6.00802844,25.0857146 5.82215235,24.9389162 5.65726228,24.8143906 L4.70889453,27.9892864 C4.8737846,28.1988538 5.05966068,28.3871608 5.30649612,28.5957158 C5.53334489,28.7840228 5.82215235,28.9925778 6.11095982,29.1596243 C6.42075329,29.3489436 6.75053343,29.5159901 7.10129959,29.6607638 C7.47205242,29.8085746 7.84380459,29.9331002 8.2555301,30.0373777 L8.33747547,30.0373777 C9.18291185,30.2256846 10.0283482,30.2671932 10.7918392,30.1619032 C11.5963029,30.0576257 12.3178219,29.7863017 12.9573955,29.3479312 C13.5969691,28.9075359 14.132612,28.3031313 14.5243509,27.5094074 C14.9160897,26.7156834 15.1639245,25.7761735 15.2048972,24.6675922 C15.2258832,23.9994062 15.1429385,23.3939892 14.9570624,22.8300807 C14.812159,22.3076808 14.5443376,21.8065413 14.2145574,21.3681708" id="Fill-9" fill="#FFFFFF"></path>
            </g>
        </g>
    </g>
</svg>