<?xml version="1.0" encoding="utf-8"?>
<!-- Generator: Adobe Illustrator 23.0.1, SVG Export Plug-In . SVG Version: 6.00 Build 0)  -->
<svg version="1.1" id="Capa_1" xmlns="http://www.w3.org/2000/svg" xmlns:xlink="http://www.w3.org/1999/xlink" x="0px" y="0px"
	 viewBox="0 0 501.177 150.524" enable-background="new 0 0 501.177 150.524" xml:space="preserve">
<g>
	<g>
		<path fill="#4F89DA" d="M473.922,53.604c1.085-0.326,1.628-1.085,1.628-2.17c0-1.411-1.085-2.17-2.713-2.17h-2.17v7.27h1.302
			v-2.93h0.76l2.17,3.255l1.193-0.326L473.922,53.604z M472.837,52.627h-1.085v-2.17h1.085c1.085,0,1.302,0.543,1.302,1.085
			C474.139,52.41,473.597,52.627,472.837,52.627z"/>
		<path fill="#4F89DA" d="M472.996,46.101c-3.844,0-6.96,3.116-6.96,6.96c0,3.844,3.116,6.96,6.96,6.96
			c3.844,0,6.96-3.116,6.96-6.96C479.956,49.217,476.84,46.101,472.996,46.101z M472.996,58.732c-3.132,0-5.671-2.539-5.671-5.671
			c0-3.132,2.539-5.671,5.671-5.671c3.132,0,5.671,2.539,5.671,5.671C478.668,56.193,476.128,58.732,472.996,58.732z"/>
	</g>
	<g>
		<path fill-rule="evenodd" clip-rule="evenodd" fill="#4F89DA" d="M50.87,63.07H35.214c0.987-3.485,2.386-6.016,4.181-7.577
			c1.795-1.569,3.849-2.353,6.162-2.353c2.604,0,4.302,0.792,5.095,2.361c0.784,1.577,0.962,3.639,0.518,6.17
			C51.121,61.97,51.015,62.439,50.87,63.07z M57.541,61.655c0.412-2.855,0.21-5.305-0.598-7.343
			c-0.809-2.03-2.111-3.558-3.882-4.585c-1.779-1.011-3.865-1.528-6.251-1.528c-3.388,0-6.421,0.784-9.073,2.353
			c-2.652,1.561-4.836,3.712-6.534,6.429c-1.69,2.717-2.855,5.814-3.461,9.3c-0.679,3.841-0.655,7.141,0.105,9.882
			c0.744,2.741,2.159,4.828,4.254,6.267c2.103,1.439,4.82,2.159,8.168,2.159c2.2,0,4.52-0.275,6.946-0.825s4.286-1.262,5.596-2.143
			l-0.631-3.89c-0.922,0.501-2.377,0.946-4.359,1.334c-1.981,0.396-3.599,0.582-4.836,0.582c-6.89,0-9.858-3.663-8.912-11.006
			c0.049-0.275,0.073-0.477,0.073-0.631h21.939c0.267-0.712,0.501-1.52,0.704-2.442C56.991,64.647,57.234,63.345,57.541,61.655z"/>
		<path fill-rule="evenodd" clip-rule="evenodd" fill="#4F89DA" d="M70.488,79.648c-4.092,0-5.798-1.949-5.103-5.839
			c0.226-1.367,0.768-2.475,1.601-3.332c0.833-0.865,1.949-1.617,3.34-2.264c1.262-0.59,2.879-1.051,4.836-1.35
			c1.949-0.307,3.688-0.469,5.216-0.469l-1.852,10.585c-0.315,0.307-0.922,0.671-1.819,1.1c-0.898,0.429-1.908,0.809-3.049,1.116
			C72.518,79.494,71.458,79.648,70.488,79.648z M77.774,48.199c-1.69,0-3.469,0.202-5.353,0.582
			c-1.892,0.388-3.59,0.833-5.103,1.342c-1.52,0.501-2.572,0.906-3.162,1.221l0.914,4.407c0.606-0.372,1.496-0.768,2.709-1.173
			c1.213-0.404,2.491-0.744,3.833-1.027c1.342-0.275,2.515-0.412,3.526-0.412c1.868,0,3.307,0.154,4.318,0.429
			s1.706,0.833,2.103,1.642c0.372,0.809,0.437,2.022,0.162,3.639l-0.623,3.502c-2.208,0-4.569,0.202-7.084,0.582
			c-2.515,0.388-4.803,0.97-6.874,1.755c-2.353,0.914-4.27,2.183-5.774,3.857c-1.52,1.666-2.466,3.623-2.871,5.895
			c-0.364,2.078-0.218,3.865,0.445,5.394c0.655,1.536,1.731,2.709,3.235,3.526c1.504,0.825,3.307,1.229,5.418,1.229
			c1.973,0,3.914-0.332,5.863-0.97c1.933-0.663,3.502-1.439,4.715-2.361l-0.049,0.251c-0.178,0.962-0.17,1.65,0.032,2.086
			c0.194,0.429,0.518,0.687,0.978,0.817c0.453,0.113,1.148,0.178,2.094,0.178h2.806l4.431-25.133
			c0.518-2.968,0.421-5.281-0.315-6.922c-0.728-1.642-1.957-2.782-3.671-3.396C82.756,48.514,80.516,48.199,77.774,48.199z"/>
		<path fill-rule="evenodd" clip-rule="evenodd" fill="#4F89DA" d="M92.71,77.092l-1.917,5.095c0.776,0.623,2.208,1.173,4.294,1.666
			c2.086,0.485,4.278,0.736,6.591,0.736c2.58,0,4.868-0.388,6.89-1.148c2.022-0.76,3.663-1.884,4.941-3.372
			c1.262-1.496,2.086-3.291,2.466-5.41c0.477-2.717-0.113-4.941-1.763-6.688c-1.642-1.731-3.874-3.21-6.696-4.431
			c-1.464-0.631-2.636-1.237-3.526-1.795c-0.881-0.558-1.512-1.213-1.917-1.973c-0.404-0.744-0.509-1.642-0.315-2.677
			c0.21-1.213,0.962-2.183,2.232-2.895c1.278-0.704,3.008-1.059,5.2-1.059c1.577,0,3.065,0.243,4.456,0.695s2.337,0.97,2.83,1.528
			l2.062-5.361c-0.655-0.372-1.795-0.776-3.413-1.181c-1.617-0.404-3.372-0.623-5.281-0.623c-2.442,0-4.69,0.356-6.736,1.059
			c-2.062,0.712-3.776,1.771-5.159,3.17c-1.383,1.407-2.248,3.113-2.596,5.119c-0.485,2.733-0.016,4.981,1.399,6.76
			c1.415,1.795,3.59,3.348,6.494,4.674c2.224,1.027,3.882,1.997,4.957,2.935c1.067,0.93,1.488,2.062,1.262,3.372
			c-0.243,1.367-0.97,2.442-2.2,3.21c-1.237,0.768-2.871,1.148-4.901,1.148c-1.407,0-2.782-0.154-4.132-0.469
			c-1.367-0.299-2.539-0.671-3.526-1.076C93.721,77.699,93.05,77.375,92.71,77.092z"/>
		<path fill-rule="evenodd" clip-rule="evenodd" fill="#4F89DA" d="M148.152,49.412l-10.966,24.009l-2.628,5.814l-0.776-5.814
			l-3.623-24.009h-7.327l6.591,35.581h2.038c-1.116,2.717-2.337,4.852-3.688,6.429c-1.367,1.561-2.669,2.628-3.93,3.21
			c-1.27,0.582-2.418,0.873-3.453,0.873c-0.412,0-0.93-0.04-1.553-0.089c-0.631-0.065-1.084-0.137-1.375-0.243l-0.987,5.564
			c0.154,0.097,0.615,0.186,1.415,0.291c0.792,0.089,1.464,0.137,2.005,0.137c0.485,0,1.051-0.049,1.706-0.137
			c0.655-0.105,1.253-0.202,1.755-0.332c5.006-1.367,9.567-6.138,13.691-14.33l18.494-36.956H148.152z"/>
		<path fill-rule="evenodd" clip-rule="evenodd" fill="#4F89DA" d="M180.475,47.39c-3.72,0-7.003,0.809-9.858,2.426
			c-2.855,1.617-5.192,3.817-6.987,6.623c-1.795,2.806-3.008,5.976-3.631,9.51c-0.606,3.429-0.526,6.486,0.235,9.178
			c0.752,2.685,2.167,4.795,4.254,6.34c2.086,1.545,4.755,2.313,7.998,2.313c2.224,0,4.375-0.291,6.461-0.857
			c2.078-0.582,3.752-1.342,5.014-2.305l-0.712-3.89c-0.995,0.558-2.305,1.035-3.938,1.464c-1.642,0.429-3.275,0.647-4.917,0.647
			c-1.892,0-3.51-0.518-4.836-1.553c-1.342-1.035-2.264-2.555-2.798-4.553c-0.526-1.989-0.542-4.383-0.032-7.189
			c0.526-2.992,1.439-5.483,2.741-7.456c1.302-1.965,2.806-3.421,4.52-4.359c1.722-0.93,3.477-1.399,5.273-1.399
			c1.779,0,3.283,0.186,4.512,0.542c1.221,0.356,2.256,0.898,3.089,1.634l2.038-5.386c-0.606-0.429-1.666-0.825-3.162-1.189
			C184.235,47.576,182.48,47.39,180.475,47.39z"/>
		<path fill-rule="evenodd" clip-rule="evenodd" fill="#4F89DA" d="M213.913,65.989c-0.728,4.084-2.046,7.238-3.954,9.486
			c-1.917,2.256-4.318,3.364-7.213,3.364c-1.997,0-3.558-0.606-4.69-1.836c-1.132-1.221-1.844-2.887-2.135-4.998
			c-0.299-2.111-0.21-4.472,0.259-7.1c0.704-4.035,1.997-7.141,3.89-9.316c1.892-2.175,4.286-3.259,7.173-3.259
			c2.038,0,3.631,0.59,4.779,1.779c1.14,1.189,1.86,2.806,2.151,4.852C214.463,61.008,214.374,63.361,213.913,65.989z
			 M189.152,65.27c-0.623,3.485-0.631,6.607-0.04,9.389c0.598,2.782,1.908,4.989,3.946,6.647c2.03,1.65,4.836,2.475,8.41,2.475
			c3.138,0,6.057-0.679,8.758-2.062c2.709-1.375,4.989-3.413,6.866-6.097c1.868-2.693,3.13-5.928,3.801-9.72
			c0.607-3.477,0.615-6.599,0.024-9.372c-0.59-2.782-1.908-4.998-3.938-6.647c-2.054-1.658-4.868-2.491-8.459-2.491
			c-3.13,0-6.041,0.695-8.726,2.086c-2.709,1.391-4.981,3.421-6.849,6.097C191.068,58.259,189.807,61.493,189.152,65.27z"/>
		<path fill-rule="evenodd" clip-rule="evenodd" fill="#4F89DA" d="M270.795,47.39c-2.272,0-4.682,0.445-7.262,1.302
			c-2.58,0.857-4.747,1.868-6.534,3.033c-0.501-1.553-1.423-2.669-2.766-3.34c-1.35-0.655-3.194-0.995-5.547-0.995
			c-2.119,0-4.375,0.445-6.736,1.31c-2.369,0.89-4.448,1.86-6.243,2.935l0.647-3.841h-6.105l-6.275,35.581h6.857l4.755-26.912
			c1.504-1.035,3.121-1.868,4.86-2.491c1.747-0.607,3.227-0.922,4.464-0.922c1.771,0,3.073,0.275,3.906,0.825
			s1.326,1.415,1.464,2.572c0.129,1.181,0.016,2.798-0.34,4.852l-3.89,22.077h6.874l3.922-22.303
			c0.323-1.819,0.509-3.461,0.582-4.901c1.496-0.938,3.089-1.682,4.795-2.264c1.69-0.566,3.178-0.857,4.456-0.857
			c1.779,0,3.097,0.275,3.946,0.825c0.833,0.55,1.326,1.415,1.448,2.572c0.129,1.181,0,2.798-0.348,4.852l-3.898,22.077h6.866
			l3.914-22.214c0.598-3.388,0.72-6.089,0.38-8.087c-0.356-1.997-1.189-3.445-2.499-4.343
			C275.17,47.843,273.277,47.39,270.795,47.39z"/>
		<path fill-rule="evenodd" clip-rule="evenodd" fill="#4F89DA" d="M329.763,47.39c-2.272,0-4.682,0.445-7.262,1.302
			c-2.58,0.857-4.755,1.868-6.534,3.033c-0.501-1.553-1.423-2.669-2.766-3.34c-1.35-0.655-3.194-0.995-5.547-0.995
			c-2.127,0-4.375,0.445-6.736,1.31c-2.377,0.89-4.448,1.86-6.243,2.935l0.647-3.841h-6.105l-6.275,35.581h6.857l4.755-26.912
			c1.504-1.035,3.121-1.868,4.86-2.491c1.747-0.607,3.227-0.922,4.464-0.922c1.771,0,3.065,0.275,3.906,0.825
			c0.833,0.55,1.326,1.415,1.464,2.572c0.121,1.181,0.008,2.798-0.34,4.852l-3.898,22.077h6.874l3.93-22.303
			c0.315-1.819,0.509-3.461,0.582-4.901c1.496-0.938,3.081-1.682,4.787-2.264c1.698-0.566,3.186-0.857,4.464-0.857
			c1.779,0,3.097,0.275,3.938,0.825c0.841,0.55,1.334,1.415,1.456,2.572c0.129,1.181,0,2.798-0.356,4.852l-3.89,22.077h6.866
			l3.914-22.214c0.59-3.388,0.72-6.089,0.38-8.087c-0.356-1.997-1.189-3.445-2.507-4.343
			C334.138,47.843,332.245,47.39,329.763,47.39z"/>
		<path fill-rule="evenodd" clip-rule="evenodd" fill="#4F89DA" d="M365.708,62.261h-15.656c0.987-3.485,2.394-6.016,4.189-7.577
			c1.795-1.569,3.849-2.353,6.162-2.353c2.604,0,4.294,0.792,5.095,2.361c0.784,1.577,0.962,3.639,0.518,6.17
			C365.967,61.162,365.862,61.631,365.708,62.261z M372.379,60.846c0.421-2.855,0.218-5.305-0.59-7.343
			c-0.809-2.03-2.111-3.558-3.882-4.585c-1.779-1.011-3.865-1.528-6.251-1.528c-3.388,0-6.421,0.784-9.073,2.353
			c-2.652,1.561-4.836,3.712-6.534,6.429c-1.69,2.717-2.855,5.814-3.461,9.3c-0.679,3.841-0.655,7.141,0.105,9.882
			c0.744,2.741,2.159,4.828,4.254,6.267c2.094,1.439,4.812,2.159,8.159,2.159c2.2,0,4.529-0.275,6.955-0.825
			c2.426-0.55,4.286-1.262,5.596-2.143l-0.631-3.89c-0.922,0.501-2.378,0.946-4.359,1.334c-1.981,0.396-3.599,0.582-4.844,0.582
			c-6.882,0-9.85-3.663-8.903-11.006c0.049-0.275,0.073-0.477,0.073-0.631h21.939c0.267-0.712,0.501-1.52,0.704-2.442
			C371.838,63.838,372.08,62.536,372.379,60.846z"/>
		<path fill-rule="evenodd" clip-rule="evenodd" fill="#4F89DA" d="M396.122,47.39c-1.253,0-2.58,0.267-3.995,0.784
			c-1.415,0.526-2.701,1.164-3.865,1.917c-1.164,0.76-2.022,1.472-2.588,2.127l0.299-4.423h-5.758l-6.283,35.581h6.866l4.674-26.524
			c1.059-0.817,2.313-1.528,3.752-2.111c1.439-0.574,2.96-0.881,4.545-0.881c1.294,0,2.264,0.089,2.935,0.267
			c0.655,0.178,1.189,0.404,1.577,0.679l1.253-7.124C398.912,47.487,397.78,47.39,396.122,47.39z"/>
		<path fill-rule="evenodd" clip-rule="evenodd" fill="#4F89DA" d="M418.635,47.39c-3.712,0-6.995,0.809-9.858,2.426
			c-2.855,1.617-5.192,3.817-6.987,6.623s-3.008,5.976-3.623,9.51c-0.607,3.429-0.534,6.486,0.226,9.178
			c0.76,2.685,2.175,4.795,4.262,6.34c2.078,1.545,4.747,2.313,7.998,2.313c2.224,0,4.367-0.291,6.453-0.857
			c2.086-0.582,3.752-1.342,5.014-2.305l-0.704-3.89c-1.003,0.558-2.313,1.035-3.946,1.464c-1.642,0.429-3.267,0.647-4.909,0.647
			c-1.9,0-3.518-0.518-4.844-1.553c-1.334-1.035-2.264-2.555-2.79-4.553c-0.534-1.989-0.542-4.383-0.04-7.189
			c0.534-2.992,1.439-5.483,2.741-7.456c1.302-1.965,2.806-3.421,4.529-4.359c1.714-0.93,3.469-1.399,5.264-1.399
			c1.779,0,3.283,0.186,4.512,0.542c1.221,0.356,2.264,0.898,3.097,1.634l2.03-5.386c-0.606-0.429-1.666-0.825-3.154-1.189
			C422.404,47.576,420.649,47.39,418.635,47.39z"/>
		<path fill-rule="evenodd" clip-rule="evenodd" fill="#4F89DA" d="M450.424,62.261h-15.656c0.987-3.485,2.386-6.016,4.181-7.577
			c1.795-1.569,3.857-2.353,6.17-2.353c2.604,0,4.294,0.792,5.095,2.361c0.776,1.577,0.954,3.639,0.518,6.17
			C450.674,61.162,450.577,61.631,450.424,62.261z M457.095,60.846c0.421-2.855,0.218-5.305-0.59-7.343
			c-0.809-2.03-2.111-3.558-3.882-4.585c-1.779-1.011-3.865-1.528-6.251-1.528c-3.388,0-6.421,0.784-9.073,2.353
			c-2.652,1.561-4.844,3.712-6.534,6.429c-1.698,2.717-2.855,5.814-3.461,9.3c-0.687,3.841-0.663,7.141,0.097,9.882
			c0.744,2.741,2.159,4.828,4.262,6.267c2.094,1.439,4.812,2.159,8.159,2.159c2.2,0,4.529-0.275,6.955-0.825
			c2.426-0.55,4.278-1.262,5.596-2.143l-0.631-3.89c-0.922,0.501-2.377,0.946-4.359,1.334c-1.989,0.396-3.607,0.582-4.844,0.582
			c-6.882,0-9.858-3.663-8.903-11.006c0.049-0.275,0.073-0.477,0.073-0.631h21.931c0.267-0.712,0.509-1.52,0.712-2.442
			C456.553,63.838,456.796,62.536,457.095,60.846z"/>
		<path fill-rule="evenodd" clip-rule="evenodd" fill="#4F89DA" d="M139.936,84.726c0,0,15.906-39.625,42.318-34.773
			C177.944,51.838,152.333,58.574,139.936,84.726z"/>
	</g>
</g>
<g>
	<path fill="#767676" d="M374.057,97.998l0.688-4.219h16.673l-0.625,4.219h-5.5l-2.828,19.688h-5.626l2.829-19.688H374.057z"/>
	<path fill="#767676" d="M408.777,93.78l-0.578,4.281h-8.781l-0.75,5.203h6.547l-0.562,4.203h-6.578l-0.859,5.922h9.891
		l-0.578,4.297h-15.453l3.422-23.906H408.777z"/>
	<path fill="#767676" d="M425.425,94.022c0.734,0.172,1.398,0.378,1.992,0.617l0.828,0.219l-1.594,5.19
		c-0.479-0.416-1.092-0.788-1.836-1.118c-0.745-0.329-1.628-0.494-2.648-0.494c-1.479,0-2.703,0.447-3.672,1.34
		s-1.678,2.052-2.125,3.476c-0.448,1.423-0.672,2.958-0.672,4.604c0,1.838,0.336,3.19,1.008,4.059
		c0.672,0.869,1.768,1.303,3.289,1.303c0.927,0,1.841-0.144,2.742-0.432c0.9-0.287,1.591-0.598,2.07-0.931l0.719,3.847
		c-0.281,0.219-0.773,0.484-1.477,0.797s-1.542,0.591-2.516,0.836c-0.975,0.245-1.977,0.367-3.008,0.367
		c-2.053,0-3.709-0.457-4.969-1.372c-1.261-0.915-2.159-2.104-2.695-3.571c-0.537-1.466-0.805-3.088-0.805-4.865
		c0-2.544,0.539-4.896,1.617-7.058c1.078-2.16,2.583-3.879,4.516-5.156c1.932-1.277,4.117-1.916,6.555-1.916
		C423.798,93.764,424.691,93.85,425.425,94.022z"/>
	<path fill="#767676" d="M450.402,93.78l-3.422,23.906h-5.594l1.391-9.719h-7.531l-1.391,9.719h-5.531l3.422-23.906h5.531
		l-1.484,10.375h7.531l1.484-10.375H450.402z"/>
</g>
</svg>
