<?xml version="1.0" encoding="UTF-8"?>
<svg xmlns="http://www.w3.org/2000/svg" xmlns:xlink="http://www.w3.org/1999/xlink" width="1615px" height="520px" viewBox="0 0 1615 520" version="1.1">
<g id="surface1">
<path style=" stroke:none;fill-rule:nonzero;fill:rgb(0%,0%,0%);fill-opacity:1;" d="M 459.199219 182.648438 L 435.898438 324.617188 C 431.898438 349.144531 429.398438 370.71875 427.199219 388.40625 L 389.398438 388.40625 L 393.398438 352.445312 L 392.699219 352.445312 C 375.601562 379.09375 353.398438 393.007812 331.300781 393.007812 C 305.5 393.007812 285.101562 376.972656 285.101562 334.757812 C 285.199219 322.375 286.398438 310.113281 288.699219 297.96875 L 307.5 182.53125 L 349.800781 182.53125 L 331.601562 294.902344 C 329.800781 304.214844 328.898438 313.648438 328.699219 323.199219 C 328.699219 340.0625 334.5 352.328125 351.199219 352.328125 C 370.800781 352.328125 393.398438 325.324219 400.699219 282.523438 L 416.699219 182.296875 Z M 459.199219 182.648438 "/>
<path style=" stroke:none;fill-rule:nonzero;fill:rgb(0%,0%,0%);fill-opacity:1;" d="M 453.898438 389.9375 L 476.300781 247.972656 C 480.300781 223.445312 482.800781 201.871094 485 184.179688 L 521.5 184.179688 L 517.5 220.148438 L 518.199219 220.148438 C 534.398438 192.671875 556.5 179.582031 579.601562 179.582031 C 607 179.582031 619.300781 200.335938 620.800781 221.796875 C 636.699219 193.96875 658.699219 179.9375 683.199219 179.582031 C 707 179.582031 725.800781 197.742188 725.800781 234.53125 C 725.5 246.320312 724.5 257.996094 722.898438 269.667969 L 703.800781 390.179688 L 663 390.179688 L 681.101562 275.210938 C 682.601562 266.71875 683.5 258.113281 683.601562 249.390625 C 683.601562 231.582031 677.398438 219.789062 662.300781 219.789062 C 642.800781 219.789062 621.5 248.089844 614.601562 291.601562 L 599.101562 390.0625 L 558.300781 390.0625 L 577.398438 273.5625 C 578.601562 265.542969 579.398438 257.523438 579.601562 249.507812 C 579.601562 234.296875 575.601562 219.910156 558.300781 219.910156 C 538.800781 219.910156 516.398438 251.15625 509.898438 293.015625 L 494.699219 390.0625 L 453.898438 390.0625 Z M 453.898438 389.9375 "/>
<path style=" stroke:none;fill-rule:nonzero;fill:rgb(0%,0%,0%);fill-opacity:1;" d="M 717.800781 473.542969 L 752.699219 260.707031 C 756.300781 236.179688 760.300781 204.109375 762.898438 183.476562 L 801 183.476562 L 797.101562 218.023438 L 797.800781 218.023438 C 812.699219 193.96875 834.800781 180.054688 857.199219 179.582031 C 895.699219 179.582031 913.101562 215.429688 913.101562 255.636719 C 913.101562 327.800781 870.601562 394.539062 810.398438 394.539062 C 798.199219 395.011719 786.199219 392.0625 775.199219 385.816406 L 774.5 385.816406 L 760 473.660156 L 717.800781 473.660156 Z M 780.898438 346.078125 C 789 353.390625 799 357.164062 809.199219 356.570312 C 842.199219 356.570312 868.601562 305.871094 868.601562 259.410156 C 868.601562 240.78125 861.699219 219.671875 840.601562 219.671875 C 819.601562 219.671875 796 247.5 788.300781 295.730469 Z M 780.898438 346.078125 "/>
<path style=" stroke:none;fill-rule:nonzero;fill:rgb(65.098039%,77.254902%,26.666667%);fill-opacity:1;" d="M 915.898438 345.722656 C 928.898438 354.09375 943.300781 358.695312 958.101562 359.402344 C 975.101562 359.402344 985.199219 347.847656 985.199219 333.699219 C 985.199219 320.960938 979.398438 312.351562 962.101562 301.742188 C 941.898438 289.125 927.5 271.671875 927.5 247.617188 C 927.5 207.648438 957.101562 179.464844 998.601562 179.464844 C 1017 179.464844 1032.199219 184.535156 1039.800781 190.078125 L 1029.300781 225.804688 C 1019.101562 219.671875 1007.898438 216.371094 996.398438 216.371094 C 980.5 216.371094 969.699219 226.160156 969.699219 240.191406 C 969.699219 252.097656 977.300781 260.234375 992.398438 269.199219 C 1011.898438 281.578125 1028.898438 298.558594 1028.898438 324.972656 C 1028.898438 370.953125 996.398438 396.425781 954.300781 396.074219 C 933.699219 395.601562 914.601562 388.761719 905.199219 380.746094 Z M 915.898438 345.722656 "/>
<path style=" stroke:none;fill-rule:nonzero;fill:rgb(65.098039%,77.254902%,26.666667%);fill-opacity:1;" d="M 1173.699219 379.5625 C 1154.398438 390.648438 1133.199219 396.308594 1111.699219 396.191406 C 1063.101562 396.191406 1039.699219 360.816406 1039.699219 310.234375 C 1039.699219 247.617188 1078.601562 179.582031 1138.898438 179.582031 C 1173.5 179.582031 1195.398438 203.046875 1195.398438 237.949219 C 1195.398438 291.132812 1148.300781 308.226562 1080.699219 306.457031 C 1080 316.597656 1081.699219 326.621094 1085.398438 335.820312 C 1092.300781 349.851562 1104.800781 357.164062 1121.398438 357.164062 C 1138.199219 357.28125 1154.699219 352.5625 1169.601562 343.484375 Z M 1133.699219 216.492188 C 1107.398438 216.492188 1090.300781 244.199219 1085.101562 269.316406 C 1128.300781 269.785156 1156 262.949219 1156 237.832031 C 1156 224.746094 1147 216.726562 1133.699219 216.726562 Z M 1133.699219 216.492188 "/>
<path style=" stroke:none;fill-rule:nonzero;fill:rgb(65.098039%,77.254902%,26.666667%);fill-opacity:1;" d="M 1190.101562 390.0625 L 1238.199219 89.734375 L 1279.898438 89.734375 L 1231.398438 390.0625 Z M 1190.101562 390.0625 "/>
<path style=" stroke:none;fill-rule:nonzero;fill:rgb(65.098039%,77.254902%,26.666667%);fill-opacity:1;" d="M 1261.398438 390.0625 L 1309.5 89.734375 L 1351.101562 89.734375 L 1302.699219 390.0625 Z M 1261.398438 390.0625 "/>
<path style=" stroke:none;fill-rule:nonzero;fill:rgb(65.098039%,77.254902%,26.666667%);fill-opacity:1;" d="M 1471.898438 379.5625 C 1452.601562 390.648438 1431.398438 396.308594 1409.898438 396.191406 C 1361.300781 396.191406 1337.898438 360.816406 1337.898438 310.234375 C 1337.898438 247.617188 1376.800781 179.582031 1437.101562 179.582031 C 1471.699219 179.582031 1493.601562 203.046875 1493.601562 237.949219 C 1493.601562 291.132812 1446.5 308.226562 1378.898438 306.457031 C 1378.199219 316.597656 1379.898438 326.621094 1383.601562 335.820312 C 1390.5 349.851562 1403 357.164062 1419.601562 357.164062 C 1436.398438 357.28125 1452.898438 352.5625 1467.800781 343.484375 Z M 1431.898438 216.492188 C 1405.601562 216.492188 1388.5 244.199219 1383.300781 269.316406 C 1426.5 269.785156 1454.199219 262.949219 1454.199219 237.832031 C 1454.199219 224.746094 1445.199219 216.726562 1431.898438 216.726562 Z M 1431.898438 216.492188 "/>
<path style=" stroke:none;fill-rule:nonzero;fill:rgb(65.098039%,77.254902%,26.666667%);fill-opacity:1;" d="M 1488.300781 389.9375 L 1508.800781 263.183594 C 1513.5 234.0625 1516 202.339844 1517.800781 184.179688 L 1554.101562 184.179688 C 1553 198.09375 1551.898438 212.480469 1550.101562 227.21875 L 1551.199219 227.21875 C 1563 199.746094 1582.101562 179.464844 1605.800781 179.464844 C 1608.898438 179.464844 1612.300781 179.9375 1615.101562 179.9375 L 1606.800781 228.164062 C 1604.199219 227.808594 1601.5 227.691406 1598.898438 227.691406 C 1569.101562 227.691406 1550.101562 263.183594 1543.199219 307.164062 L 1529.898438 390.0625 Z M 1488.300781 389.9375 "/>
<path style=" stroke:none;fill-rule:nonzero;fill:rgb(0%,0%,0%);fill-opacity:1;" d="M 211.101562 119.679688 C 214.800781 117.324219 218.398438 114.609375 221.699219 111.429688 C 240.101562 94.214844 250.898438 67.800781 251 39.851562 C 251.101562 29.242188 249.300781 18.628906 245.699219 8.84375 C 244.898438 6.835938 245 4.480469 246 2.714844 C 247 0.824219 248.800781 -0.117188 250.601562 0 C 252.398438 0.117188 254.101562 1.414062 254.898438 3.421875 C 259.199219 14.855469 261.398438 27.355469 261.300781 39.851562 C 261.199219 71.691406 248.898438 101.644531 227.898438 121.21875 C 224.398438 124.515625 220.601562 127.464844 216.601562 130.0625 Z M 211.101562 119.679688 "/>
<path style=" stroke:none;fill-rule:nonzero;fill:rgb(65.098039%,77.254902%,26.666667%);fill-opacity:1;" d="M 268.101562 177.933594 C 273.699219 187.367188 275.699219 199.15625 273.601562 210.476562 L 229.898438 491.9375 C 226.699219 512.804688 215.601562 522.949219 197.300781 519.292969 L 24.101562 483.445312 C -0.199219 478.492188 -2.398438 460.335938 1.699219 434.160156 L 44.601562 158.476562 C 46.5 146.09375 51 139.730469 61.5 132.179688 L 159.398438 58.601562 C 164 54.949219 169.300781 52.824219 174.800781 52.472656 C 185.699219 52.472656 190.199219 56.128906 200.199219 71.691406 Z M 184.300781 181.703125 L 142.300781 181.703125 L 109 388.878906 C 102.5 428.265625 91.898438 437.222656 78.199219 437.222656 C 74.101562 437.34375 69.898438 436.867188 65.898438 435.925781 L 60.800781 473.660156 C 68.300781 475.785156 75.898438 476.726562 83.601562 476.609375 C 100.699219 476.609375 117 469.886719 128.199219 455.382812 C 139.398438 440.996094 146.300781 418.949219 152.101562 383.691406 Z M 147.398438 125.699219 C 147.398438 141.378906 156.101562 151.992188 168.800781 151.992188 C 183.300781 151.992188 194.898438 140.554688 195.300781 122.277344 C 195.601562 115.199219 193.398438 108.246094 189.101562 103.292969 C 184.800781 98.339844 178.898438 95.628906 172.800781 95.980469 C 166 95.863281 159.5 98.929688 154.699219 104.589844 C 149.898438 110.128906 147.199219 117.796875 147.398438 125.699219 Z M 147.398438 125.699219 "/>
<path style=" stroke:none;fill-rule:nonzero;fill:rgb(0%,0%,0%);fill-opacity:1;" d="M 335.398438 10.257812 C 333 8.492188 329.800781 9.316406 328.199219 12.148438 C 327.898438 12.734375 298.199219 67.09375 261.898438 67.09375 C 253.898438 67.210938 245.800781 66.621094 237.898438 65.207031 C 226.5 63.316406 215.101562 62.492188 203.601562 62.730469 C 170.398438 62.730469 153 83.25 153 103.527344 C 153 116.734375 160.800781 139.136719 190 139.136719 L 191.101562 139.136719 C 192.699219 135.25 193.699219 131.003906 193.800781 126.640625 C 192.5 126.875 191.300781 126.875 190 126.992188 C 164.601562 126.992188 163.300781 107.539062 163.300781 103.648438 C 163.300781 89.734375 177.398438 75.113281 203.5 75.113281 C 214.5 74.875 225.5 75.699219 236.398438 77.46875 C 244.800781 78.886719 253.300781 79.59375 261.800781 79.476562 C 303.699219 79.476562 335.5 21.222656 336.800781 18.75 C 337.601562 17.335938 337.800781 15.679688 337.601562 14.148438 C 337.398438 12.5 336.601562 11.082031 335.398438 10.257812 Z M 335.398438 10.257812 "/>
</g>
</svg>
