<?xml version="1.0" encoding="utf-8"?>
<!-- Generator: Adobe Illustrator 23.0.3, SVG Export Plug-In . SVG Version: 6.00 Build 0)  -->
<svg version="1.1" id="Capa_1" xmlns="http://www.w3.org/2000/svg" xmlns:xlink="http://www.w3.org/1999/xlink" x="0px" y="0px" width="1615px" height="441px" viewBox="0 0 1615 441" style="enable-background:new 0 0 1615 441;" xml:space="preserve">
<style type="text/css">
	.st0{fill:#A6C544;}
</style>
<title>logo 2</title>
<desc>Created with Sketch.</desc>
<g id="Page-1">
	<g id="logo-2">
		<path id="Shape" d="M459.2,154.9l-23.3,120.4c-4,20.8-6.5,39.1-8.7,54.1h-37.8l4-30.5h-0.7c-17.1,22.6-39.3,34.4-61.4,34.4
			c-25.8,0-46.2-13.6-46.2-49.4c0.1-10.5,1.3-20.9,3.6-31.2l18.8-97.9h42.3l-18.2,95.3c-1.8,7.9-2.7,15.9-2.9,24
			c0,14.3,5.8,24.7,22.5,24.7c19.6,0,42.2-22.9,49.5-59.2l16-85L459.2,154.9L459.2,154.9z"/>
		<path d="M453.9,330.7l22.4-120.4c4-20.8,6.5-39.1,8.7-54.1h36.5l-4,30.5h0.7c16.2-23.3,38.3-34.4,61.4-34.4
			c27.4,0,39.7,17.6,41.2,35.8c15.9-23.6,37.9-35.5,62.4-35.8c23.8,0,42.6,15.4,42.6,46.6c-0.3,10-1.3,19.9-2.9,29.8l-19.1,102.2
			h-40.8l18.1-97.5c1.5-7.2,2.4-14.5,2.5-21.9c0-15.1-6.2-25.1-21.3-25.1c-19.5,0-40.8,24-47.7,60.9l-15.5,83.5h-40.8l19.1-98.8
			c1.2-6.8,2-13.6,2.2-20.4c0-12.9-4-25.1-21.3-25.1c-19.5,0-41.9,26.5-48.4,62l-15.2,82.3H453.9z"/>
		<path d="M717.8,401.6l34.9-180.5c3.6-20.8,7.6-48,10.2-65.5h38.1l-3.9,29.3h0.7c14.9-20.4,37-32.2,59.4-32.6
			c38.5,0,55.9,30.4,55.9,64.5c0,61.2-42.5,117.8-102.7,117.8c-12.2,0.4-24.2-2.1-35.2-7.4h-0.7l-14.5,74.5H717.8z M780.9,293.5
			c8.1,6.2,18.1,9.4,28.3,8.9c33,0,59.4-43,59.4-82.4c0-15.8-6.9-33.7-28-33.7c-21,0-44.6,23.6-52.3,64.5L780.9,293.5z"/>
		<path class="st0" d="M915.9,293.2c13,7.1,27.4,11,42.2,11.6c17,0,27.1-9.8,27.1-21.8c0-10.8-5.8-18.1-23.1-27.1
			c-20.2-10.7-34.6-25.5-34.6-45.9c0-33.9,29.6-57.8,71.1-57.8c18.4,0,33.6,4.3,41.2,9l-10.5,30.3c-10.2-5.2-21.4-8-32.9-8
			c-15.9,0-26.7,8.3-26.7,20.2c0,10.1,7.6,17,22.7,24.6c19.5,10.5,36.5,24.9,36.5,47.3c0,39-32.5,60.6-74.6,60.3
			c-20.6-0.4-39.7-6.2-49.1-13L915.9,293.2z"/>
		<path class="st0" d="M1173.7,321.9c-19.3,9.4-40.5,14.2-62,14.1c-48.6,0-72-30-72-72.9c0-53.1,38.9-110.8,99.2-110.8
			c34.6,0,56.5,19.9,56.5,49.5c0,45.1-47.1,59.6-114.7,58.1c-0.7,8.6,1,17.1,4.7,24.9c6.9,11.9,19.4,18.1,36,18.1
			c16.8,0.1,33.3-3.9,48.2-11.6L1173.7,321.9z M1133.7,183.6c-26.3,0-43.4,23.5-48.6,44.8c43.2,0.4,70.9-5.4,70.9-26.7
			c0-11.1-9-17.9-22.3-17.9V183.6z"/>
		<polygon class="st0" points="1190.1,330.8 1238.2,76.1 1279.9,76.1 1231.4,330.8 		"/>
		<polygon class="st0" points="1261.4,330.8 1309.5,76.1 1351.1,76.1 1302.7,330.8 		"/>
		<path class="st0" d="M1471.9,321.9c-19.3,9.4-40.5,14.2-62,14.1c-48.6,0-72-30-72-72.9c0-53.1,38.9-110.8,99.2-110.8
			c34.6,0,56.5,19.9,56.5,49.5c0,45.1-47.1,59.6-114.7,58.1c-0.7,8.6,1,17.1,4.7,24.9c6.9,11.9,19.4,18.1,36,18.1
			c16.8,0.1,33.3-3.9,48.2-11.6L1471.9,321.9z M1431.9,183.6c-26.3,0-43.4,23.5-48.6,44.8c43.2,0.4,70.9-5.4,70.9-26.7
			c0-11.1-9-17.9-22.3-17.9V183.6z"/>
		<path class="st0" d="M1488.3,330.7l20.5-107.5c4.7-24.7,7.2-51.6,9-67h36.3c-1.1,11.8-2.2,24-4,36.5h1.1
			c11.8-23.3,30.9-40.5,54.6-40.5c3.1,0,6.5,0.4,9.3,0.4l-8.3,40.9c-2.6-0.3-5.3-0.4-7.9-0.4c-29.8,0-48.8,30.1-55.7,67.4
			l-13.3,70.3L1488.3,330.7L1488.3,330.7z"/>
		<path d="M211.1,101.5c3.7-2,7.3-4.3,10.6-7c18.4-14.6,29.2-37,29.3-60.7c0.1-9-1.7-18-5.3-26.3c-0.8-1.7-0.7-3.7,0.3-5.2
			c1-1.6,2.8-2.4,4.6-2.3c1.8,0.1,3.5,1.2,4.3,2.9c4.3,9.7,6.5,20.3,6.4,30.9c-0.1,27-12.4,52.4-33.4,69c-3.5,2.8-7.3,5.3-11.3,7.5
			L211.1,101.5z"/>
		<path id="Combined-Shape" class="st0" d="M268.1,150.9c5.6,8,7.6,18,5.5,27.6l-43.7,238.7c-3.2,17.7-14.3,26.3-32.6,23.2L24.1,410
			c-24.3-4.2-26.5-19.6-22.4-41.8l42.9-233.8c1.9-10.5,6.4-15.9,16.9-22.3l97.9-62.4c4.6-3.1,9.9-4.9,15.4-5.2
			c10.9,0,15.4,3.1,25.4,16.3L268.1,150.9z M184.3,154.1L184.3,154.1l-42,0L109,329.8c-6.5,33.4-17.1,41-30.8,41
			c-4.1,0.1-8.3-0.3-12.3-1.1l-5.1,32c7.5,1.8,15.1,2.6,22.8,2.5c17.1,0,33.4-5.7,44.6-18c11.2-12.2,18.1-30.9,23.9-60.8
			L184.3,154.1z M147.4,106.6c0,13.3,8.7,22.3,21.4,22.3c14.5,0,26.1-9.7,26.5-25.2c0.3-6-1.9-11.9-6.2-16.1s-10.2-6.5-16.3-6.2
			c-6.8-0.1-13.3,2.5-18.1,7.3C149.9,93.4,147.2,99.9,147.4,106.6z"/>
		<path d="M335.4,8.7c-2.4-1.5-5.6-0.8-7.2,1.6c-0.3,0.5-30,46.6-66.3,46.6c-8,0.1-16.1-0.4-24-1.6c-11.4-1.6-22.8-2.3-34.3-2.1
			c-33.2,0-50.6,17.4-50.6,34.6c0,11.2,7.8,30.2,37,30.2h1.1c1.6-3.3,2.6-6.9,2.7-10.6c-1.3,0.2-2.5,0.2-3.8,0.3
			c-25.4,0-26.7-16.5-26.7-19.8c0-11.8,14.1-24.2,40.2-24.2c11-0.2,22,0.5,32.9,2c8.4,1.2,16.9,1.8,25.4,1.7
			c41.9,0,73.7-49.4,75-51.5c0.8-1.2,1-2.6,0.8-3.9C337.4,10.6,336.6,9.4,335.4,8.7L335.4,8.7z"/>
	</g>
</g>
</svg>
