<?xml version="1.0" encoding="UTF-8"?>
<svg width="111px" height="80px" viewBox="0 0 111 80" version="1.1" xmlns="http://www.w3.org/2000/svg" xmlns:xlink="http://www.w3.org/1999/xlink">
    <!-- Generator: Sketch 53.2 (72643) - https://sketchapp.com -->
    <title>Shape</title>
    <desc>Created with Sketch.</desc>
    <g id="Integraciones" stroke="none" stroke-width="1" fill="none" fill-rule="evenodd">
        <g id="logo/integration-tiendanube" transform="translate(-2.000000, -19.000000)" fill="#2C3357" fill-rule="nonzero">
            <g id="night-blue" transform="translate(2.000000, 19.000000)">
                <path d="M71.0711817,0 C71.0711817,0 71.0711817,0 71.0711817,0 C70.9913601,0 70.9913601,0 70.9913601,0 C60.5347269,0 50.636845,4.08 43.2134337,11.36 C39.4618172,9.76 35.3110925,8.88 31.0805463,8.88 C13.9987179,8.88 0.0299331104,22.8 0.0299331104,40 C0.0299331104,57.2 13.9188963,71.12 31.0805463,71.12 C35.2312709,71.12 39.3819955,70.24 43.133612,68.64 C50.3175585,75.68 60.1356187,80 70.9115385,80 C92.9423077,80 110.822352,62.08 110.822352,40 C110.902174,18 93.0221293,0 71.0711817,0 Z M70.9913601,71.12 C53.9095318,71.12 39.9407469,57.2 39.9407469,40 L31.0805463,40 C31.0805463,47.84 33.3155518,55.2 37.2268116,61.36 C35.2312709,61.92 33.1559086,62.24 31.0805463,62.24 C18.8678372,62.24 8.89013378,52.24 8.89013378,40 C8.89013378,27.76 18.8678372,17.76 31.0805463,17.76 C35.9496656,17.76 40.4994983,19.28 44.4107581,22.24 C50.0780936,26.48 53.2709588,32.96 53.2709588,40 L62.210981,40 C62.210981,30.72 58.2198997,22.08 51.1157748,16.16 C56.7032887,11.52 63.727592,8.88 71.0711817,8.88 C88.15301,8.88 102.121795,22.88 102.121795,40 C102.041973,57.12 88.15301,71.12 70.9913601,71.12 Z" id="Shape"></path>
            </g>
        </g>
    </g>
</svg>