<?xml version="1.0" encoding="UTF-8"?>
<svg width="80px" height="80px" viewBox="0 0 80 80" version="1.1" xmlns="http://www.w3.org/2000/svg" xmlns:xlink="http://www.w3.org/1999/xlink">
    <!-- Generator: Sketch 53.2 (72643) - https://sketchapp.com -->
    <title>unbounce-icon-dark</title>
    <desc>Created with Sketch.</desc>
    <g id="Integraciones" stroke="none" stroke-width="1" fill="none" fill-rule="evenodd">
        <g id="logo/integration-unbounce" transform="translate(0.000000, -3.000000)" fill="#303030" fill-rule="nonzero">
            <g id="unbounce-icon-dark" transform="translate(0.000000, 3.000000)">
                <g id="Symbol_3_">
                    <path d="M40.2242991,0.224299065 C18.2429907,0.224299065 0.448598131,18.0186916 0.448598131,40 C0.448598131,61.9813084 18.2429907,79.7757009 40.2242991,79.7757009 C62.2056075,79.7757009 80,61.9813084 80,40 C80,18.0186916 62.2056075,0.224299065 40.2242991,0.224299065 Z M38.8037383,55.6261682 L35.8878505,64.2242991 C35.8130841,64.5233645 35.6635514,64.7476636 35.5140187,64.9719626 C35.1401869,65.5700935 34.6915888,66.0186916 34.0934579,66.317757 C33.5700935,66.6168224 32.9719626,66.7663551 32.3738318,66.7663551 C32,66.7663551 31.5514019,66.6915888 31.1775701,66.5420561 C29.5327103,65.9439252 28.4859813,64.2990654 28.7102804,62.6542056 C20.4859813,58.4672897 14.8785047,49.8691589 14.8785047,40 C14.8785047,25.9439252 26.2429907,14.5046729 40.3738318,14.5046729 C42.0186916,14.5046729 43.588785,14.6542056 45.1588785,14.953271 C46.0560748,13.5327103 47.8504673,12.8598131 49.4953271,13.3831776 C50.3925234,13.682243 51.0654206,14.2803738 51.5140187,15.0280374 C51.8878505,15.7009346 52.1121495,16.4485981 52.0373832,17.271028 C52.0373832,17.5700935 51.9626168,17.8691589 51.8878505,18.0934579 L48.9719626,26.6915888 L38.8037383,55.6261682 Z M42.0186916,65.4205607 L45.5327103,54.8037383 C51.588785,52.635514 55.9252336,46.8785047 55.9252336,40 C55.9252336,36.7850467 54.953271,33.7196262 53.2336449,31.2523364 L56.7476636,20.635514 C62.2056075,25.271028 65.7196262,32.2242991 65.7196262,40 C65.6448598,53.4579439 55.2523364,64.4485981 42.0186916,65.4205607 Z" id="Shape"></path>
                    <path d="M24.5233645,40 C24.5233645,45.5327103 27.4392523,50.3925234 31.7757009,53.2336449 L41.6448598,24.3738318 C41.1962617,24.2990654 40.6728972,24.2990654 40.2242991,24.2990654 C31.5514019,24.2990654 24.5233645,31.3271028 24.5233645,40 Z" id="Path"></path>
                </g>
            </g>
        </g>
    </g>
</svg>