<svg width="320" height="66" viewBox="0 0 320 66" fill="none" xmlns="http://www.w3.org/2000/svg">
<path fill-rule="evenodd" clip-rule="evenodd" d="M254 0H320V66H254V0Z" fill="white"/>
<path fill-rule="evenodd" clip-rule="evenodd" d="M256.905 60.8445H256.716C256.716 60.7503 256.669 60.6085 256.669 60.561C256.669 60.514 256.669 60.4199 256.527 60.4199H256.244V60.8445H256.102V59.8529H256.527C256.716 59.8529 256.858 59.9005 256.858 60.0888C256.858 60.2305 256.81 60.2781 256.764 60.3247C256.811 60.3723 256.858 60.4195 256.858 60.514V60.7027C256.858 60.7503 256.858 60.7503 256.905 60.7503V60.8445ZM256.716 60.1364C256.716 59.9946 256.622 59.9946 256.575 59.9946H256.244V60.2781H256.527C256.622 60.2781 256.716 60.2305 256.716 60.1364V60.1364ZM257.519 60.325C257.519 59.7587 257.047 59.2859 256.433 59.2859C255.866 59.2859 255.394 59.7587 255.394 60.325C255.394 60.939 255.866 61.4118 256.433 61.4118C257.047 61.4115 257.519 60.939 257.519 60.325ZM257.377 60.325C257.377 60.8448 256.953 61.2225 256.433 61.2225C255.913 61.2225 255.535 60.8445 255.535 60.325C255.535 59.8529 255.913 59.4276 256.433 59.4276C256.952 59.4276 257.377 59.8529 257.377 60.325ZM315.57 41.2426C315.57 42.6598 314.673 43.3203 313.066 43.3203H309.997V41.9031H313.066C313.35 41.9031 313.586 41.8562 313.681 41.7621C313.775 41.6672 313.87 41.5255 313.87 41.3368C313.87 41.1475 313.775 40.9588 313.681 40.8646C313.586 40.7698 313.397 40.7229 313.114 40.7229C311.65 40.6753 309.808 40.7698 309.808 38.6918C309.808 37.7467 310.422 36.7075 312.075 36.7075H315.239V38.1247H312.311C312.028 38.1247 311.839 38.1247 311.697 38.2189C311.555 38.3606 311.461 38.5024 311.461 38.7387C311.461 38.9749 311.603 39.1167 311.791 39.2115C311.981 39.2584 312.17 39.3057 312.406 39.3057H313.256C314.153 39.3057 314.72 39.4943 315.098 39.8254C315.381 40.1559 315.57 40.5815 315.57 41.2426V41.2426ZM308.91 39.8254C308.532 39.4943 307.965 39.3057 307.067 39.3057H306.218C305.982 39.3057 305.792 39.2581 305.604 39.2115C305.414 39.1167 305.273 38.9749 305.273 38.7387C305.273 38.5024 305.32 38.3606 305.509 38.2189C305.651 38.1247 305.84 38.1247 306.123 38.1247H309.052V36.7075H305.887C304.187 36.7075 303.62 37.7467 303.62 38.6918C303.62 40.7694 305.462 40.6753 306.926 40.7229C307.209 40.7229 307.399 40.7698 307.493 40.8646C307.587 40.9588 307.682 41.1475 307.682 41.3368C307.682 41.5255 307.587 41.6672 307.493 41.7621C307.351 41.8562 307.162 41.9031 306.879 41.9031H303.809V43.3203H306.879C308.484 43.3203 309.382 42.6595 309.382 41.2426C309.382 40.5815 309.193 40.1559 308.91 39.8254V39.8254ZM302.864 41.9511H299.133V40.6284H302.77V39.3064H299.133V38.0778H302.864V36.7082H297.574V43.3207H302.864V41.9511ZM295.873 37.039C295.354 36.7555 294.74 36.7079 293.937 36.7079H290.3V43.3203H291.906V40.9115H293.606C294.173 40.9115 294.504 40.9591 294.74 41.195C295.024 41.5255 295.024 42.0925 295.024 42.5177V43.3203H296.582V42.0449C296.582 41.431 296.535 41.1475 296.346 40.817C296.204 40.6277 295.921 40.3918 295.543 40.25C295.968 40.109 296.677 39.5419 296.677 38.5024C296.677 37.7471 296.393 37.3218 295.873 37.039V37.039ZM286.899 36.7079H281.845L279.814 38.8808L277.877 36.7079H271.501V43.3203H277.783L279.814 41.1475L281.751 43.3203H284.821V41.1009H286.805C288.174 41.1009 289.545 40.7229 289.545 38.8808C289.544 37.0859 288.127 36.7079 286.899 36.7079ZM294.598 39.4478C294.362 39.5419 294.126 39.5419 293.842 39.5419L291.906 39.5895V38.0775H293.842C294.126 38.0775 294.409 38.0775 294.598 38.2192C294.787 38.3141 294.928 38.5027 294.928 38.7863C294.928 39.0698 294.787 39.306 294.598 39.4478V39.4478ZM286.899 39.7782H284.821V38.0775H286.899C287.466 38.0775 287.844 38.3141 287.844 38.8808C287.844 39.4478 287.466 39.7782 286.899 39.7782ZM280.806 40.0141L283.262 37.4166V42.754L280.806 40.0141ZM276.98 41.9511H273.059V40.6284H276.554V39.3064H273.059V38.0778H277.027L278.774 40.0144L276.98 41.9511V41.9511ZM311.177 31.9372H308.91L305.934 26.9775V31.9372H302.723L302.108 30.4727H298.802L298.188 31.9372H296.346C295.59 31.9372 294.598 31.7482 294.032 31.1812C293.512 30.6145 293.228 29.8588 293.228 28.6779C293.228 27.6859 293.37 26.7885 294.078 26.0801C294.55 25.5603 295.401 25.3244 296.487 25.3244H297.998V26.7416H296.487C295.921 26.7416 295.589 26.8361 295.259 27.1196C294.976 27.4031 294.834 27.9225 294.834 28.631C294.834 29.3394 294.976 29.8592 295.259 30.1899C295.495 30.4258 295.921 30.5203 296.345 30.5203H297.054L299.321 25.3247H301.683L304.328 31.5595V25.3244H306.784L309.571 29.9061V25.3244H311.177V31.9372H311.177V31.9372ZM292.425 25.3244H290.82V31.9372H292.425V25.3244V25.3244ZM289.072 25.6079C288.552 25.3244 287.985 25.3244 287.183 25.3244H283.545V31.9372H285.104V29.5281H286.804C287.371 29.5281 287.749 29.5753 287.985 29.8116C288.269 30.1423 288.221 30.7093 288.221 31.087V31.9372H289.827V30.6145C289.827 30.0478 289.78 29.7643 289.544 29.4335C289.402 29.2445 289.118 29.0083 288.788 28.8669C289.213 28.6779 289.922 28.1584 289.922 27.1193C289.922 26.3636 289.591 25.9383 289.072 25.6079ZM282.411 30.5676H278.727V29.2449H282.364V27.8753H278.727V26.6943H282.411V25.3247H277.121V31.9375H282.411V30.5676ZM275.94 25.3244H273.343L271.406 29.8116L269.328 25.3244H266.777V31.5592L264.085 25.3244H261.723L258.889 31.9372H260.59L261.203 30.4727H264.51L265.124 31.9372H268.336V26.7416L270.65 31.9372H272.02L274.334 26.7416V31.9372H275.94V25.3244H275.94ZM301.542 29.0559L300.455 26.4581L299.369 29.0559H301.542ZM287.844 28.017C287.608 28.1588 287.372 28.1588 287.041 28.1588H285.104V26.6947H287.04C287.324 26.6947 287.654 26.6947 287.843 26.7892C288.032 26.9309 288.127 27.1199 288.127 27.4031C288.127 27.6863 288.032 27.9222 287.844 28.017V28.017ZM261.77 29.0559L262.857 26.4581L263.943 29.0559H261.77V29.0559ZM315.192 4.58853H258.842V28.3947L260.778 24.002H264.887L265.454 25.0885V24.002H270.272L271.359 26.3636L272.398 24.002H287.749C288.457 24.002 289.071 24.1438 289.544 24.5215V24.002H293.748V24.5215C294.456 24.1434 295.353 24.002 296.393 24.002H302.486L303.053 25.0885V24.002H307.54L308.202 25.0885V24.002H312.594V33.2599H308.154L307.304 31.843V33.2599H301.778L301.164 31.7485H299.794L299.18 33.2599H296.299C295.165 33.2599 294.314 32.9764 293.748 32.6932V33.2599H286.899V31.1343C286.899 30.8507 286.852 30.8035 286.663 30.8035H286.427V33.2595H273.201V32.0786L272.729 33.2595H269.942L269.47 32.1259V33.2595H264.132L263.565 31.7482H262.195L261.581 33.2595H258.842V61.1752H315.192V44.2178C314.578 44.5013 313.728 44.643 312.878 44.643H308.768V44.076C308.296 44.4544 307.446 44.643 306.643 44.643H293.7V42.5177C293.7 42.2342 293.654 42.2342 293.417 42.2342H293.181V44.643H288.93V42.1397C288.222 42.4702 287.418 42.4702 286.71 42.4702H286.237V44.643H281.042L279.814 43.2258L278.444 44.643H270.083V35.3855H278.585L279.814 36.802L281.136 35.3855H286.852C287.513 35.3855 288.599 35.4797 289.072 35.9519V35.3855H294.173C294.692 35.3855 295.685 35.4797 296.346 35.9519V35.3855H304.045V35.9522C304.47 35.5742 305.273 35.3859 305.981 35.3859H310.28V35.9522C310.752 35.6218 311.413 35.3859 312.264 35.3859H315.192V4.58853V4.58853Z" fill="#0077A6"/>
<path d="M159.956 63.8686V59.8866C159.956 58.3634 159.031 57.366 157.444 57.366C156.65 57.366 155.787 57.6289 155.193 58.4948C154.731 57.768 154.068 57.366 153.074 57.366C152.412 57.366 151.749 57.567 151.225 58.2938V57.4974H149.838V63.8686H151.225V60.3505C151.225 59.2217 151.818 58.6881 152.743 58.6881C153.668 58.6881 154.13 59.2835 154.13 60.3505V63.8686H155.517V60.3505C155.517 59.2217 156.18 58.6881 157.035 58.6881C157.96 58.6881 158.422 59.2835 158.422 60.3505V63.8686H159.956ZM180.531 57.4974H178.281V55.5722H176.894V57.4974H175.638V58.7577H176.894V61.6804C176.894 63.1418 177.487 64 179.075 64C179.668 64 180.331 63.799 180.793 63.5361L180.393 62.3376C179.992 62.6005 179.529 62.6701 179.198 62.6701C178.535 62.6701 178.273 62.268 178.273 61.6108V58.7577H180.524V57.4974H180.531ZM192.306 57.3582C191.513 57.3582 190.981 57.7603 190.649 58.2861V57.4897H189.262V63.8608H190.649V60.2732C190.649 59.2139 191.112 58.6108 191.975 58.6108C192.237 58.6108 192.568 58.6804 192.838 58.7423L193.239 57.4124C192.961 57.3582 192.568 57.3582 192.306 57.3582ZM174.513 58.0232C173.85 57.5593 172.925 57.3582 171.931 57.3582C170.344 57.3582 169.288 58.1546 169.288 59.415C169.288 60.4742 170.082 61.0773 171.469 61.2706L172.132 61.3402C172.856 61.4716 173.257 61.6727 173.257 62.0052C173.257 62.4691 172.725 62.8015 171.8 62.8015C170.875 62.8015 170.143 62.4691 169.681 62.1366L169.018 63.1959C169.743 63.7294 170.737 63.9923 171.731 63.9923C173.58 63.9923 174.644 63.1263 174.644 61.9356C174.644 60.8067 173.781 60.2113 172.463 60.0103L171.8 59.9407C171.207 59.8711 170.744 59.7397 170.744 59.3454C170.744 58.8814 171.207 58.6186 171.939 58.6186C172.733 58.6186 173.526 58.951 173.927 59.1521L174.513 58.0232ZM211.418 57.3582C210.624 57.3582 210.092 57.7603 209.761 58.2861V57.4897H208.374V63.8608H209.761V60.2732C209.761 59.2139 210.223 58.6108 211.086 58.6108C211.348 58.6108 211.68 58.6804 211.949 58.7423L212.35 57.4278C212.08 57.3582 211.687 57.3582 211.418 57.3582ZM193.693 60.683C193.693 62.6082 195.019 64 197.069 64C197.993 64 198.656 63.799 199.319 63.2732L198.656 62.1443C198.124 62.5464 197.6 62.7397 196.999 62.7397C195.874 62.7397 195.081 61.9433 195.081 60.683C195.081 59.4845 195.874 58.6881 196.999 58.6263C197.593 58.6263 198.124 58.8273 198.656 59.2217L199.319 58.0928C198.656 57.5593 197.993 57.366 197.069 57.366C195.019 57.3583 193.693 58.7577 193.693 60.683ZM206.524 60.683V57.4974H205.137V58.2938C204.675 57.6985 204.012 57.366 203.149 57.366C201.361 57.366 199.974 58.7577 199.974 60.683C199.974 62.6082 201.361 64 203.149 64C204.074 64 204.736 63.6675 205.137 63.0722V63.8686H206.524V60.683ZM201.43 60.683C201.43 59.5541 202.155 58.6263 203.349 58.6263C204.474 58.6263 205.268 59.4923 205.268 60.683C205.268 61.8119 204.474 62.7397 203.349 62.7397C202.163 62.6701 201.43 61.8041 201.43 60.683ZM184.831 57.3582C182.982 57.3582 181.656 58.6881 181.656 60.6753C181.656 62.6701 182.982 63.9923 184.901 63.9923C185.825 63.9923 186.75 63.7294 187.482 63.1263L186.82 62.1289C186.288 62.5309 185.625 62.7938 184.97 62.7938C184.107 62.7938 183.252 62.3918 183.051 61.2706H187.744C187.744 61.0696 187.744 60.9381 187.744 60.7371C187.806 58.6881 186.611 57.3582 184.831 57.3582ZM184.831 58.5567C185.694 58.5567 186.288 59.0902 186.419 60.0799H183.113C183.244 59.2217 183.837 58.5567 184.831 58.5567ZM219.293 60.683V54.9768H217.906V58.2938C217.444 57.6985 216.781 57.366 215.918 57.366C214.13 57.366 212.743 58.7577 212.743 60.683C212.743 62.6082 214.13 64 215.918 64C216.843 64 217.505 63.6675 217.906 63.0722V63.8686H219.293V60.683ZM214.2 60.683C214.2 59.5541 214.924 58.6263 216.118 58.6263C217.243 58.6263 218.037 59.4923 218.037 60.683C218.037 61.8119 217.243 62.7397 216.118 62.7397C214.924 62.6701 214.2 61.8041 214.2 60.683ZM167.762 60.683V57.4974H166.375V58.2938C165.913 57.6985 165.25 57.366 164.387 57.366C162.599 57.366 161.212 58.7577 161.212 60.683C161.212 62.6082 162.599 64 164.387 64C165.312 64 165.974 63.6675 166.375 63.0722V63.8686H167.762V60.683ZM162.607 60.683C162.607 59.5541 163.331 58.6263 164.526 58.6263C165.651 58.6263 166.444 59.4923 166.444 60.683C166.444 61.8119 165.651 62.7397 164.526 62.7397C163.331 62.6701 162.607 61.8041 162.607 60.683Z" fill="black"/>
<path d="M194.888 9.11081H174.05V46.6727H194.888V9.11081Z" fill="#FF5A00"/>
<path d="M175.438 27.8917C175.438 20.2603 179.013 13.4871 184.5 9.11082C180.462 5.92526 175.368 4 169.812 4C156.65 4 146 14.6856 146 27.8917C146 41.0979 156.65 51.7835 169.812 51.7835C175.368 51.7835 180.462 49.8582 184.5 46.6727C179.006 42.3582 175.438 35.5232 175.438 27.8917Z" fill="#EB001B"/>
<path d="M223 27.8917C223 41.0979 212.35 51.7835 199.188 51.7835C193.632 51.7835 188.538 49.8582 184.5 46.6727C190.056 42.2887 193.562 35.5232 193.562 27.8917C193.562 20.2603 189.987 13.4871 184.5 9.11082C188.53 5.92526 193.624 4 199.18 4C212.35 4 223 14.7552 223 27.8917Z" fill="#F79E1B"/>
<path d="M49.8332 48.4518H40.5174L46.3442 11.6668H55.6595L49.8332 48.4518Z" fill="#00579F"/>
<path d="M83.6038 12.5661C81.7663 11.8218 78.8519 11 75.2483 11C66.0486 11 59.5703 16.0088 59.5305 23.1698C59.4541 28.4532 64.1688 31.3877 67.695 33.1494C71.2992 34.9495 72.5244 36.1244 72.5244 37.729C72.4877 40.1933 69.612 41.3293 66.9299 41.3293C63.2106 41.3293 61.2178 40.7436 58.1892 39.3726L56.9625 38.7849L55.6589 47.0423C57.8438 48.0586 61.8693 48.9605 66.0486 49C75.8234 49 82.1871 44.0688 82.2625 36.4376C82.2997 32.2501 79.8101 29.0414 74.4429 26.4195C71.1846 24.7364 69.1892 23.6015 69.1892 21.8794C69.2274 20.3138 70.8769 18.7103 74.5549 18.7103C77.5834 18.6318 79.8086 19.375 81.4943 20.1188L82.3369 20.5094L83.6038 12.5661V12.5661Z" fill="#00579F"/>
<path d="M95.9853 35.4202C96.7525 33.3069 99.7046 25.128 99.7046 25.128C99.6659 25.2066 100.47 22.9758 100.93 21.6063L101.581 24.7759C101.581 24.7759 103.345 33.581 103.729 35.4202C102.273 35.4202 97.8254 35.4202 95.9853 35.4202ZM107.485 11.6668H100.279C98.0566 11.6668 96.3684 12.3315 95.4097 14.7189L81.5723 48.4513H91.347C91.347 48.4513 92.9563 43.9111 93.3022 42.9333C94.3745 42.9333 103.883 42.9333 105.263 42.9333C105.53 44.2248 106.374 48.4513 106.374 48.4513H115L107.485 11.6668V11.6668Z" fill="#00579F"/>
<path d="M32.7365 11.6668L23.6132 36.7507L22.6163 31.6634C20.9296 25.7933 15.6398 19.4156 9.73657 16.2444L18.0931 48.4128H27.9443L42.5872 11.6668H32.7365V11.6668Z" fill="#00579F"/>
<path d="M15.1416 11.6668H0.153335L0 12.4101C11.6917 15.4626 19.435 22.8208 22.6163 31.6649L19.358 14.7589C18.8216 12.4095 17.1731 11.7443 15.1416 11.6668Z" fill="#FAA61A"/>
</svg>
