<?xml version="1.0" encoding="UTF-8" standalone="no"?>
<svg width="40px" height="40px" viewBox="0 0 40 40" version="1.1" xmlns="http://www.w3.org/2000/svg" xmlns:xlink="http://www.w3.org/1999/xlink">
    <!-- Generator: Sketch 45 (43475) - http://www.bohemiancoding.com/sketch -->
    <title>header-logo</title>
    <desc>Created with Sketch.</desc>
    <defs></defs>
    <g id="Symbols" stroke="none" stroke-width="1" fill="none" fill-rule="evenodd">
        <g id="header-logo" fill="#FBB224">
            <path d="M29.63,19.93 C28.46,21.81 25.12,21.57 24.37,19.4 C24.37,19.4 23.48,16.19 20.03,16.17 C16.58,16.19 15.69,19.4 15.69,19.4 C14.94,21.57 11.61,21.81 10.43,19.93 C9.65,18.68 9.97,17.8 10.1,17.38 C10.1,17.38 12.56,10.35 20.02,10.35 C27.48,10.35 29.96,17.38 29.96,17.38 C30.09,17.8 30.41,18.68 29.63,19.93 Z M0,20 C0,31.05 8.95,40 20,40 C31.05,40 40,31.05 40,20 C40,8.95 31.05,0 20,0 C8.95,0 0,8.95 0,20 Z" id="Page-1"></path>
        </g>
    </g>
</svg>