<svg width="36" height="34" viewBox="0 0 36 34" fill="none" xmlns="http://www.w3.org/2000/svg">
<g clip-path="url(#clip0_17_3930)">
<path d="M29.82 31.4351V31.6737C29.82 32.9562 28.77 34.0001 27.465 34.0001H2.34C1.05 34.0001 0 32.9562 0 31.6737V31.1667C0.045 29.6009 0.3 28.0501 0.795 26.5737C1.35 24.9334 2.175 23.3825 3.285 22.0106C4.365 20.7132 5.61 19.6097 7.005 18.7597C7.695 18.3422 8.685 18.2229 9.555 18.3869C12.96 20.7281 16.995 20.6536 20.265 18.3869C20.58 18.3123 20.925 18.2825 21.255 18.2974C21.255 18.4615 21.27 18.5957 21.3 18.7597C20.505 19.3711 20.01 20.3404 20.01 21.3992V22.7711C20.01 23.8746 20.535 24.8588 21.39 25.4702C21.27 26.4694 21.6 27.5132 22.35 28.2588L23.325 29.2281C23.955 29.8544 24.795 30.1974 25.695 30.1974C25.875 30.1974 26.055 30.1825 26.22 30.1676C26.835 30.958 27.81 31.4501 28.875 31.4501H29.82V31.4351Z" fill="#FECB00"/>
<path d="M7.04999 7.79912C7.04999 3.50439 10.575 0 14.91 0C19.245 0 22.755 3.50439 22.755 7.79912C22.755 12.0939 19.23 17.1342 14.91 17.1342C10.59 17.1342 7.06499 12.1088 7.06499 7.79912H7.04999Z" fill="#FECB00"/>
<path d="M35.685 20.8772L34.65 20.7281C34.515 20.6982 34.41 20.6088 34.365 20.4746C34.26 20.1316 34.11 19.8035 33.945 19.4903C33.87 19.371 33.885 19.2219 33.96 19.1026L34.545 18.3123C34.65 18.1781 34.635 17.9693 34.515 17.85L33.54 16.8807C33.42 16.7614 33.21 16.7465 33.075 16.8509L32.265 17.4474C32.16 17.5368 32.01 17.5368 31.875 17.4623C31.56 17.2833 31.215 17.1491 30.855 17.0447C30.72 17 30.615 16.8956 30.6 16.7614L30.465 15.8219C30.435 15.643 30.285 15.5237 30.105 15.5237H28.74C28.56 15.5237 28.41 15.6579 28.38 15.8219L28.245 16.7465C28.215 16.8807 28.125 17 27.975 17.0298C27.6 17.1342 27.24 17.2833 26.91 17.4772C26.775 17.5518 26.625 17.5368 26.52 17.4474L25.815 16.9254C25.68 16.8211 25.47 16.836 25.35 16.9553L24.375 17.9246C24.255 18.0439 24.24 18.2526 24.345 18.3868L24.87 19.1026C24.96 19.207 24.96 19.371 24.885 19.4903C24.69 19.8333 24.525 20.2061 24.42 20.5939C24.39 20.7281 24.27 20.8474 24.135 20.8623L23.31 20.9816C23.13 21.0114 23.01 21.1605 23.01 21.3395V22.7114C23.01 22.8903 23.145 23.0395 23.31 23.0693L24.165 23.2035C24.3 23.2184 24.42 23.3228 24.45 23.457C24.57 23.8596 24.735 24.2325 24.945 24.5754C25.02 24.7096 25.02 24.8588 24.93 24.9781L24.435 25.6342C24.33 25.7684 24.345 25.9772 24.465 26.0965L25.44 27.0658C25.56 27.1851 25.77 27.2 25.905 27.0956L26.625 26.5737C26.73 26.4842 26.88 26.4842 27.015 26.5439C27.36 26.7377 27.735 26.8719 28.125 26.9763C28.26 27.0061 28.38 27.1254 28.395 27.2746L28.53 28.1246C28.56 28.3035 28.71 28.4228 28.89 28.4228H30.27C30.45 28.4228 30.6 28.2886 30.63 28.1246L30.765 27.1851C30.795 27.0509 30.885 26.9465 31.02 26.9018C31.38 26.7974 31.74 26.6333 32.055 26.4395C32.19 26.3649 32.34 26.3649 32.445 26.4395L33.195 26.9912C33.33 27.0956 33.54 27.0807 33.66 26.9614L34.635 25.9921C34.755 25.8728 34.77 25.664 34.665 25.5298L34.065 24.7096C33.975 24.6053 33.975 24.4561 34.035 24.3368C34.2 24.0237 34.335 23.6807 34.425 23.3228C34.455 23.1886 34.56 23.0842 34.71 23.0544L35.685 22.9053C35.865 22.8754 35.985 22.7263 35.985 22.5474V21.1903C35.985 21.0114 35.85 20.8623 35.685 20.8325V20.8772ZM29.505 24.3219C28.2 24.3219 27.165 23.2781 27.165 21.9956C27.165 20.7132 28.215 19.6693 29.505 19.6693C30.795 19.6693 31.845 20.7132 31.845 21.9956C31.845 23.2781 30.795 24.3219 29.505 24.3219Z" fill="#FECB00"/>
</g>
<defs>
<clipPath id="clip0_17_3930">
<rect width="36" height="34" fill="white"/>
</clipPath>
</defs>
</svg>
